<svg width="22" height="28" viewBox="0 0 22 28" fill="none" xmlns="http://www.w3.org/2000/svg">
<path d="M6.86816 12.3885H8.01286V22.907L6.86816 22.2058V12.3885Z" fill="#C4C4C4"/>
<path d="M9.72998 7.12927L21.7493 4.67716L21.7493 5.84588L10.3023 8.29795L9.72998 7.12927Z" fill="#C4C4C4"/>
<ellipse cx="5.72347" cy="8.88242" rx="5.72347" ry="5.8436" fill="#B3B3B3"/>
<path d="M8.17935 7.24436V8.28938H2.1855V7.24436H8.17935ZM5.74097 4.69187V11.0581H4.62988V4.69187H5.74097Z" fill="#1F1919"/>
<path fill-rule="evenodd" clip-rule="evenodd" d="M4.00643 27.5819C6.21911 27.5819 8.01285 25.7505 8.01285 23.4914C8.01285 21.2323 6.21911 19.4009 4.00643 19.4009C1.79374 19.4009 0 21.2323 0 23.4914C0 25.7505 1.79374 27.5819 4.00643 27.5819ZM4.00643 26.2184C5.48155 26.2184 6.67738 24.9975 6.67738 23.4914C6.67738 21.9853 5.48155 20.7644 4.00643 20.7644C2.5313 20.7644 1.33548 21.9853 1.33548 23.4914C1.33548 24.9975 2.5313 26.2184 4.00643 26.2184Z" fill="#C4C4C4"/>
<path fill-rule="evenodd" clip-rule="evenodd" d="M17.7428 25.2445C19.9554 25.2445 21.7492 23.4131 21.7492 21.154C21.7492 18.8949 19.9554 17.0635 17.7428 17.0635C15.5301 17.0635 13.7363 18.8949 13.7363 21.154C13.7363 23.4131 15.5301 25.2445 17.7428 25.2445ZM17.7428 23.881C19.2179 23.881 20.4137 22.6601 20.4137 21.154C20.4137 19.6479 19.2179 18.427 17.7428 18.427C16.2676 18.427 15.0718 19.6479 15.0718 21.154C15.0718 22.6601 16.2676 23.881 17.7428 23.881Z" fill="#C4C4C4"/>
<path d="M20.6045 5.91884L21.7492 5.37622V20.5696L20.6045 19.4844V5.91884Z" fill="#C4C4C4"/>
</svg>
