<svg width="24" height="23" viewBox="0 0 24 23" fill="none" xmlns="http://www.w3.org/2000/svg">
<circle cx="7.5" cy="7.5" r="6.5" fill="#CF146E"/>
<circle cx="16.5" cy="7.5" r="6.5" fill="#CF146E"/>
<circle cx="11.5" cy="13.5" r="6.5" fill="#CF146E"/>
<path d="M19.5 12.5C19.5 16.0899 16.5899 19 13 19C9.41015 19 6.5 16.0899 6.5 12.5C6.5 8.91015 9.41015 6 13 6C16.5899 6 19.5 8.91015 19.5 12.5Z" fill="#CF146E"/>
<path d="M16 16.5C16 19.5376 14.2091 22 12 22C9.79086 22 8 19.5376 8 16.5C8 13.4624 9.79086 11 12 11C14.2091 11 16 13.4624 16 16.5Z" fill="#CF146E"/>
<path d="M21.9476 2.16069C20.7184 0.861156 19.068 0.0931107 17.3236 0.00885116C15.5793 -0.0754084 13.8684 0.530272 12.5302 1.70579C12.3763 1.82751 12.1909 1.8977 11.9983 1.90716C11.8045 1.90124 11.6175 1.8307 11.4646 1.70579C10.1271 0.529603 8.41633 -0.0765297 6.67204 0.00774238C4.92774 0.0920144 3.27748 0.860528 2.04893 2.16069C1.39723 2.83983 0.880578 3.64768 0.528882 4.53747C0.177185 5.42726 -0.00256859 6.38131 2.77288e-05 7.34438C2.77288e-05 9.30242 0.727611 11.1436 2.00431 12.4777L9.6611 21.8688C9.94962 22.2234 10.3082 22.5082 10.712 22.7036C11.1158 22.8989 11.5552 23 12 23C12.4448 23 12.8842 22.8989 13.288 22.7036C13.6918 22.5082 14.0504 22.2234 14.3389 21.8688L21.9494 12.5281C22.6012 11.849 23.1181 11.0411 23.4701 10.1514C23.8221 9.26162 24.0022 8.30755 24 7.34438C24.0015 6.38116 23.8209 5.42716 23.4686 4.53745C23.1164 3.64775 22.5994 2.83995 21.9476 2.16069ZM20.7087 11.327L13.0519 20.7181C12.5251 21.3653 11.4715 21.3653 10.9447 20.7181L3.24326 11.2766C2.74911 10.7614 2.35741 10.1485 2.09084 9.47352C1.82427 8.79854 1.68812 8.07486 1.69029 7.34438C1.69029 5.85921 2.24112 4.46215 3.24326 3.41211C3.73581 2.8924 4.32153 2.47982 4.96676 2.1981C5.61199 1.91637 6.30401 1.77106 7.00302 1.77051C8.23045 1.76969 9.41912 2.22092 10.3612 3.04531C10.4316 3.11004 11.0614 3.67642 11.9983 3.67642C12.9095 3.67642 13.553 3.11903 13.6113 3.06509C14.6258 2.17345 15.9231 1.71402 17.2457 1.77797C18.5684 1.84192 19.8198 2.42458 20.7516 3.41031C21.2477 3.93147 21.6403 4.55041 21.9068 5.23141C22.1734 5.91241 22.3086 6.64198 22.3046 7.37802C22.3006 8.11405 22.1575 8.84197 21.8836 9.51976C21.6097 10.1975 21.2104 10.8118 20.7087 11.327Z" fill="#CF146E"/>
</svg>
