<svg width="37" height="37" viewBox="0 0 37 37" fill="none" xmlns="http://www.w3.org/2000/svg">
<path fill-rule="evenodd" clip-rule="evenodd" d="M19.3497 23.3237V9.7259H16.9579V23.3068L12.3561 17.9321L10.5431 19.4946L18.1562 28.3931L25.798 19.4994L23.985 17.9297L19.3497 23.3237ZM18.1538 0.111084C8.24698 0.111084 0.215332 8.18272 0.215332 18.1389C0.215332 28.095 8.24698 36.1666 18.1538 36.1666C28.0606 36.1666 36.0923 28.095 36.0923 18.1389C36.0923 8.18272 28.0606 0.111084 18.1538 0.111084ZM18.1538 33.7629C9.5816 33.7629 2.60713 26.7537 2.60713 18.1389C2.60713 9.52399 9.5816 2.51479 18.1538 2.51479C26.726 2.51479 33.7005 9.52399 33.7005 18.1389C33.7005 26.7537 26.726 33.7629 18.1538 33.7629Z" fill="#B3B3B3"/>
</svg>
