<svg width="51" height="52" viewBox="0 0 51 52" fill="none" xmlns="http://www.w3.org/2000/svg">
<path d="M16.2129 38.542V39.3853H11.9805V38.542H16.2129ZM12.1416 35.1797V43H11.105V35.1797H12.1416ZM17.1152 35.1797V43H16.084V35.1797H17.1152ZM18.5439 40.1587V40.0352C18.5439 39.6162 18.6048 39.2277 18.7266 38.8696C18.8483 38.508 19.0238 38.1947 19.2529 37.9297C19.4821 37.6611 19.7596 37.4535 20.0854 37.3066C20.4113 37.1562 20.7765 37.0811 21.1812 37.0811C21.5894 37.0811 21.9564 37.1562 22.2822 37.3066C22.6117 37.4535 22.891 37.6611 23.1201 37.9297C23.3529 38.1947 23.5301 38.508 23.6519 38.8696C23.7736 39.2277 23.8345 39.6162 23.8345 40.0352V40.1587C23.8345 40.5776 23.7736 40.9661 23.6519 41.3242C23.5301 41.6823 23.3529 41.9956 23.1201 42.2642C22.891 42.5291 22.6134 42.7368 22.2876 42.8872C21.9653 43.034 21.6001 43.1074 21.1919 43.1074C20.7837 43.1074 20.4167 43.034 20.0908 42.8872C19.765 42.7368 19.4857 42.5291 19.2529 42.2642C19.0238 41.9956 18.8483 41.6823 18.7266 41.3242C18.6048 40.9661 18.5439 40.5776 18.5439 40.1587ZM19.5376 40.0352V40.1587C19.5376 40.4487 19.5716 40.7227 19.6396 40.9805C19.7077 41.2347 19.8097 41.4603 19.9458 41.6572C20.0854 41.8542 20.2591 42.0099 20.4668 42.1245C20.6745 42.2355 20.9162 42.291 21.1919 42.291C21.464 42.291 21.7021 42.2355 21.9062 42.1245C22.1139 42.0099 22.2858 41.8542 22.4219 41.6572C22.5579 41.4603 22.66 41.2347 22.728 40.9805C22.7996 40.7227 22.8354 40.4487 22.8354 40.1587V40.0352C22.8354 39.7487 22.7996 39.4784 22.728 39.2241C22.66 38.9663 22.5562 38.7389 22.4165 38.542C22.2804 38.3415 22.1086 38.1839 21.9009 38.0693C21.6968 37.9548 21.4569 37.8975 21.1812 37.8975C20.909 37.8975 20.6691 37.9548 20.4614 38.0693C20.2573 38.1839 20.0854 38.3415 19.9458 38.542C19.8097 38.7389 19.7077 38.9663 19.6396 39.2241C19.5716 39.4784 19.5376 39.7487 19.5376 40.0352ZM26.0688 38.3433V43H25.0698V37.1885H26.0151L26.0688 38.3433ZM25.8647 39.874L25.4028 39.8579C25.4064 39.4604 25.4583 39.0934 25.5586 38.7568C25.6589 38.4167 25.8075 38.1213 26.0044 37.8706C26.2013 37.62 26.4466 37.4266 26.7402 37.2905C27.0339 37.1509 27.374 37.0811 27.7607 37.0811C28.0329 37.0811 28.2835 37.1204 28.5127 37.1992C28.7419 37.2744 28.9406 37.3944 29.1089 37.5591C29.2772 37.7238 29.4079 37.9351 29.501 38.1929C29.5941 38.4507 29.6406 38.7622 29.6406 39.1274V43H28.647V39.1758C28.647 38.8714 28.5951 38.6279 28.4912 38.4453C28.391 38.2627 28.2477 38.1302 28.0615 38.0479C27.8753 37.9619 27.6569 37.9189 27.4062 37.9189C27.1126 37.9189 26.8674 37.9709 26.6704 38.0747C26.4735 38.1785 26.3159 38.3218 26.1978 38.5044C26.0796 38.687 25.9937 38.8965 25.9399 39.1328C25.8898 39.3656 25.8647 39.6126 25.8647 39.874ZM29.6299 39.3262L28.9639 39.5303C28.9674 39.2116 29.0194 38.9054 29.1196 38.6118C29.2235 38.3182 29.3721 38.0568 29.5654 37.8276C29.7624 37.5985 30.0041 37.4176 30.2905 37.2852C30.577 37.1491 30.9046 37.0811 31.2734 37.0811C31.585 37.0811 31.8607 37.1222 32.1006 37.2046C32.3441 37.2869 32.5482 37.4141 32.7129 37.5859C32.8812 37.7542 33.0083 37.9709 33.0942 38.2358C33.1802 38.5008 33.2231 38.8159 33.2231 39.1812V43H32.2241V39.1704C32.2241 38.8446 32.1722 38.5921 32.0684 38.4131C31.9681 38.2305 31.8249 38.1034 31.6387 38.0317C31.4561 37.9565 31.2376 37.9189 30.9834 37.9189C30.765 37.9189 30.5716 37.9565 30.4033 38.0317C30.235 38.1069 30.0936 38.2108 29.979 38.3433C29.8644 38.4722 29.7767 38.6208 29.7158 38.7891C29.6585 38.9574 29.6299 39.1364 29.6299 39.3262ZM37.1387 43.1074C36.734 43.1074 36.367 43.0394 36.0376 42.9033C35.7118 42.7637 35.4307 42.5685 35.1943 42.3179C34.9616 42.0672 34.7826 41.77 34.6572 41.4263C34.5319 41.0825 34.4692 40.7065 34.4692 40.2983V40.0728C34.4692 39.6001 34.5391 39.1794 34.6787 38.8105C34.8184 38.4382 35.0081 38.123 35.248 37.8652C35.488 37.6074 35.7601 37.4123 36.0645 37.2798C36.3688 37.1473 36.6839 37.0811 37.0098 37.0811C37.4251 37.0811 37.7832 37.1527 38.084 37.2959C38.3883 37.4391 38.6372 37.6396 38.8306 37.8975C39.0239 38.1517 39.1672 38.4525 39.2603 38.7998C39.3534 39.1436 39.3999 39.5195 39.3999 39.9277V40.3735H35.0601V39.5625H38.4062V39.4873C38.3919 39.2295 38.3382 38.9788 38.2451 38.7354C38.1556 38.4919 38.0124 38.2913 37.8154 38.1338C37.6185 37.9762 37.3499 37.8975 37.0098 37.8975C36.7842 37.8975 36.5765 37.9458 36.3867 38.0425C36.1969 38.1356 36.034 38.2752 35.8979 38.4614C35.7619 38.6476 35.6562 38.875 35.5811 39.1436C35.5059 39.4121 35.4683 39.7218 35.4683 40.0728V40.2983C35.4683 40.5741 35.5059 40.8337 35.5811 41.0771C35.6598 41.3171 35.7726 41.5283 35.9194 41.7109C36.0698 41.8936 36.2507 42.0368 36.4619 42.1406C36.6768 42.2445 36.9202 42.2964 37.1924 42.2964C37.5433 42.2964 37.8405 42.2248 38.084 42.0815C38.3275 41.9383 38.5405 41.7467 38.7231 41.5068L39.3247 41.9849C39.1994 42.1746 39.04 42.3555 38.8467 42.5273C38.6533 42.6992 38.4152 42.8389 38.1323 42.9463C37.853 43.0537 37.5218 43.1074 37.1387 43.1074Z" fill="#E5E5E5"/>
<path d="M25 7.16188L16.9474 12.0819V25.0042H22.0495V18.0333H27.9951V25.0042H33.0526V12.0463L25 7.16188ZM25 6L34 11.284V26H27.0478V19.0291H22.9968V26H16V11.3314L25 6Z" fill="#B3B3B3"/>
</svg>
