<svg width="22" height="21" viewBox="0 0 22 21" fill="none" xmlns="http://www.w3.org/2000/svg">
<path d="M20.9147 19.1277L15.8404 13.9295C17.1451 12.4018 17.86 10.4797 17.86 8.47874C17.86 3.80364 13.9982 0 9.25176 0C4.50527 0 0.643555 3.80364 0.643555 8.47874C0.643555 13.1538 4.50527 16.9575 9.25176 16.9575C11.0337 16.9575 12.7317 16.4281 14.1835 15.4232L19.2964 20.6609C19.5101 20.8795 19.7976 21 20.1056 21C20.3971 21 20.6737 20.8905 20.8837 20.6914C21.3298 20.2686 21.344 19.5675 20.9147 19.1277ZM9.25176 2.21185C12.7602 2.21185 15.6143 5.0231 15.6143 8.47874C15.6143 11.9344 12.7602 14.7456 9.25176 14.7456C5.74335 14.7456 2.88917 11.9344 2.88917 8.47874C2.88917 5.0231 5.74335 2.21185 9.25176 2.21185Z" fill="black"/>
</svg>
