<svg width="616" height="103" viewBox="0 0 616 103" fill="none" xmlns="http://www.w3.org/2000/svg">
<path d="M0.186343 37V2.09091H13.9591C16.5954 2.09091 18.8454 2.5625 20.7091 3.50568C22.5841 4.4375 24.0102 5.76136 24.9875 7.47727C25.9761 9.18182 26.4704 11.1875 26.4704 13.4943C26.4704 15.8125 25.9704 17.8068 24.9704 19.4773C23.9704 21.1364 22.5216 22.4091 20.6238 23.2955C18.7375 24.1818 16.4534 24.625 13.7716 24.625H4.54998V18.6932H12.5784C13.9875 18.6932 15.1579 18.5 16.0898 18.1136C17.0216 17.7273 17.7148 17.1477 18.1693 16.375C18.6352 15.6023 18.8682 14.642 18.8682 13.4943C18.8682 12.3352 18.6352 11.358 18.1693 10.5625C17.7148 9.76704 17.0159 9.16477 16.0727 8.75568C15.1409 8.33523 13.9648 8.125 12.5443 8.125H7.56703V37H0.186343ZM19.0386 21.1136L27.7148 37H19.567L11.0784 21.1136H19.0386ZM42.8679 37.5114C40.1747 37.5114 37.8566 36.9659 35.9134 35.875C33.9816 34.7727 32.4929 33.2159 31.4475 31.2045C30.402 29.1818 29.8793 26.7898 29.8793 24.0284C29.8793 21.3352 30.402 18.9716 31.4475 16.9375C32.4929 14.9034 33.9645 13.3182 35.8622 12.1818C37.7713 11.0455 40.01 10.4773 42.5781 10.4773C44.3054 10.4773 45.9134 10.7557 47.402 11.3125C48.902 11.858 50.2088 12.6818 51.3225 13.7841C52.4475 14.8864 53.3225 16.2727 53.9475 17.9432C54.5725 19.6023 54.885 21.5455 54.885 23.7727V25.767H32.777V21.267H48.0497C48.0497 20.2216 47.8225 19.2955 47.3679 18.4886C46.9134 17.6818 46.2827 17.0511 45.4759 16.5966C44.6804 16.1307 43.7543 15.8977 42.6975 15.8977C41.5952 15.8977 40.6179 16.1534 39.7656 16.6648C38.9247 17.1648 38.2656 17.8409 37.7884 18.6932C37.3111 19.5341 37.0668 20.4716 37.0554 21.5057V25.7841C37.0554 27.0795 37.2941 28.1989 37.7713 29.142C38.26 30.0852 38.9475 30.8125 39.8338 31.3239C40.7202 31.8352 41.7713 32.0909 42.9872 32.0909C43.7941 32.0909 44.5327 31.9773 45.2031 31.75C45.8736 31.5227 46.4475 31.1818 46.9247 30.7273C47.402 30.2727 47.7656 29.7159 48.0156 29.0568L54.7316 29.5C54.3906 31.1136 53.6918 32.5227 52.635 33.7273C51.5895 34.9205 50.2372 35.8523 48.5781 36.5227C46.9304 37.1818 45.027 37.5114 42.8679 37.5114ZM66.8975 37.4943C65.2271 37.4943 63.7384 37.2045 62.4316 36.625C61.1248 36.0341 60.0907 35.1648 59.3293 34.017C58.5793 32.858 58.2043 31.4148 58.2043 29.6875C58.2043 28.233 58.4714 27.0114 59.0055 26.0227C59.5396 25.0341 60.2668 24.2386 61.1873 23.6364C62.1077 23.0341 63.1532 22.5795 64.3236 22.2727C65.5055 21.9659 66.7441 21.75 68.0396 21.625C69.5623 21.4659 70.7896 21.3182 71.7214 21.1818C72.6532 21.0341 73.3293 20.8182 73.7498 20.5341C74.1702 20.25 74.3805 19.8295 74.3805 19.2727V19.1705C74.3805 18.0909 74.0396 17.2557 73.3577 16.6648C72.6873 16.0739 71.7327 15.7784 70.4941 15.7784C69.1873 15.7784 68.1475 16.0682 67.3748 16.6477C66.6021 17.2159 66.0907 17.9318 65.8407 18.7955L59.1248 18.25C59.4657 16.6591 60.1361 15.2841 61.1361 14.125C62.1361 12.9545 63.4259 12.0568 65.0055 11.4318C66.5964 10.7955 68.4373 10.4773 70.5282 10.4773C71.9827 10.4773 73.3748 10.6477 74.7043 10.9886C76.0452 11.3295 77.2327 11.858 78.2668 12.5739C79.3123 13.2898 80.1361 14.2102 80.7384 15.3352C81.3407 16.4489 81.6418 17.7841 81.6418 19.3409V37H74.7555V33.3693H74.5509C74.1305 34.1875 73.568 34.9091 72.8634 35.5341C72.1589 36.1477 71.3123 36.6307 70.3236 36.983C69.335 37.3239 68.193 37.4943 66.8975 37.4943ZM68.9771 32.483C70.0452 32.483 70.9884 32.2727 71.8066 31.8523C72.6248 31.4205 73.2668 30.8409 73.7327 30.1136C74.1986 29.3864 74.4316 28.5625 74.4316 27.642V24.8636C74.2043 25.0114 73.8918 25.1477 73.4941 25.2727C73.1077 25.3864 72.6702 25.4943 72.1816 25.5966C71.693 25.6875 71.2043 25.7727 70.7157 25.8523C70.2271 25.9205 69.7839 25.983 69.3861 26.0398C68.5339 26.1648 67.7896 26.3636 67.1532 26.6364C66.5168 26.9091 66.0225 27.2784 65.6702 27.7443C65.318 28.1989 65.1418 28.767 65.1418 29.4489C65.1418 30.4375 65.4998 31.1932 66.2157 31.7159C66.943 32.2273 67.8634 32.483 68.9771 32.483ZM94.3447 2.09091V37H87.0834V2.09091H94.3447ZM99.9695 37V10.8182H106.89V15.4375H107.197C107.742 13.9034 108.651 12.6932 109.924 11.8068C111.197 10.9205 112.719 10.4773 114.492 10.4773C116.288 10.4773 117.816 10.9261 119.077 11.8239C120.339 12.7102 121.18 13.9148 121.6 15.4375H121.873C122.407 13.9375 123.373 12.7386 124.771 11.8409C126.18 10.9318 127.844 10.4773 129.765 10.4773C132.208 10.4773 134.191 11.2557 135.714 12.8125C137.248 14.358 138.015 16.5511 138.015 19.392V37H130.771V20.8239C130.771 19.3693 130.384 18.2784 129.612 17.5511C128.839 16.8239 127.873 16.4602 126.714 16.4602C125.396 16.4602 124.367 16.8807 123.629 17.7216C122.89 18.5511 122.521 19.6477 122.521 21.0114V37H115.481V20.6705C115.481 19.3864 115.112 18.3636 114.373 17.6023C113.646 16.8409 112.685 16.4602 111.492 16.4602C110.685 16.4602 109.958 16.6648 109.31 17.0739C108.674 17.4716 108.168 18.0341 107.793 18.7614C107.418 19.4773 107.231 20.3182 107.231 21.2841V37H99.9695ZM155.491 37.5114C152.797 37.5114 150.479 36.9659 148.536 35.875C146.604 34.7727 145.116 33.2159 144.07 31.2045C143.025 29.1818 142.502 26.7898 142.502 24.0284C142.502 21.3352 143.025 18.9716 144.07 16.9375C145.116 14.9034 146.587 13.3182 148.485 12.1818C150.394 11.0455 152.633 10.4773 155.201 10.4773C156.928 10.4773 158.536 10.7557 160.025 11.3125C161.525 11.858 162.831 12.6818 163.945 13.7841C165.07 14.8864 165.945 16.2727 166.57 17.9432C167.195 19.6023 167.508 21.5455 167.508 23.7727V25.767H145.4V21.267H160.672C160.672 20.2216 160.445 19.2955 159.991 18.4886C159.536 17.6818 158.905 17.0511 158.098 16.5966C157.303 16.1307 156.377 15.8977 155.32 15.8977C154.218 15.8977 153.241 16.1534 152.388 16.6648C151.547 17.1648 150.888 17.8409 150.411 18.6932C149.934 19.5341 149.689 20.4716 149.678 21.5057V25.7841C149.678 27.0795 149.917 28.1989 150.394 29.142C150.883 30.0852 151.57 30.8125 152.456 31.3239C153.343 31.8352 154.394 32.0909 155.61 32.0909C156.417 32.0909 157.155 31.9773 157.826 31.75C158.496 31.5227 159.07 31.1818 159.547 30.7273C160.025 30.2727 160.388 29.7159 160.638 29.0568L167.354 29.5C167.013 31.1136 166.314 32.5227 165.258 33.7273C164.212 34.9205 162.86 35.8523 161.201 36.5227C159.553 37.1818 157.65 37.5114 155.491 37.5114ZM179.316 21.8636V37H172.054V10.8182H178.975V15.4375H179.282C179.861 13.9148 180.833 12.7102 182.196 11.8239C183.56 10.9261 185.213 10.4773 187.157 10.4773C188.975 10.4773 190.56 10.875 191.912 11.6705C193.264 12.4659 194.316 13.6023 195.066 15.0795C195.816 16.5455 196.191 18.2955 196.191 20.3295V37H188.929V21.625C188.941 20.0227 188.532 18.7727 187.702 17.875C186.872 16.9659 185.73 16.5114 184.276 16.5114C183.299 16.5114 182.435 16.7216 181.685 17.142C180.946 17.5625 180.367 18.1761 179.946 18.983C179.537 19.7784 179.327 20.7386 179.316 21.8636ZM215.648 10.8182V16.2727H199.881V10.8182H215.648ZM203.46 4.54545H210.722V28.9545C210.722 29.625 210.824 30.1477 211.028 30.5227C211.233 30.8864 211.517 31.142 211.881 31.2898C212.256 31.4375 212.688 31.5114 213.176 31.5114C213.517 31.5114 213.858 31.483 214.199 31.4261C214.54 31.358 214.801 31.3068 214.983 31.2727L216.125 36.6761C215.761 36.7898 215.25 36.9205 214.591 37.0682C213.932 37.2273 213.131 37.3239 212.188 37.358C210.438 37.4261 208.903 37.1932 207.585 36.6591C206.278 36.125 205.261 35.2955 204.534 34.1705C203.807 33.0455 203.449 31.625 203.46 29.9091V4.54545ZM231.836 37.5114C229.143 37.5114 226.825 36.9659 224.882 35.875C222.95 34.7727 221.461 33.2159 220.416 31.2045C219.371 29.1818 218.848 26.7898 218.848 24.0284C218.848 21.3352 219.371 18.9716 220.416 16.9375C221.461 14.9034 222.933 13.3182 224.831 12.1818C226.74 11.0455 228.978 10.4773 231.547 10.4773C233.274 10.4773 234.882 10.7557 236.371 11.3125C237.871 11.858 239.177 12.6818 240.291 13.7841C241.416 14.8864 242.291 16.2727 242.916 17.9432C243.541 19.6023 243.853 21.5455 243.853 23.7727V25.767H221.746V21.267H237.018C237.018 20.2216 236.791 19.2955 236.336 18.4886C235.882 17.6818 235.251 17.0511 234.444 16.5966C233.649 16.1307 232.723 15.8977 231.666 15.8977C230.564 15.8977 229.586 16.1534 228.734 16.6648C227.893 17.1648 227.234 17.8409 226.757 18.6932C226.28 19.5341 226.035 20.4716 226.024 21.5057V25.7841C226.024 27.0795 226.263 28.1989 226.74 29.142C227.228 30.0852 227.916 30.8125 228.802 31.3239C229.689 31.8352 230.74 32.0909 231.956 32.0909C232.763 32.0909 233.501 31.9773 234.172 31.75C234.842 31.5227 235.416 31.1818 235.893 30.7273C236.371 30.2727 236.734 29.7159 236.984 29.0568L243.7 29.5C243.359 31.1136 242.66 32.5227 241.603 33.7273C240.558 34.9205 239.206 35.8523 237.547 36.5227C235.899 37.1818 233.996 37.5114 231.836 37.5114ZM268.965 37.4261C266.977 37.4261 265.175 36.9148 263.562 35.892C261.96 34.858 260.687 33.3409 259.744 31.3409C258.812 29.3295 258.346 26.8636 258.346 23.9432C258.346 20.9432 258.829 18.4489 259.795 16.4602C260.761 14.4602 262.045 12.9659 263.647 11.9773C265.261 10.9773 267.028 10.4773 268.948 10.4773C270.414 10.4773 271.636 10.7273 272.613 11.2273C273.602 11.7159 274.397 12.3295 274.999 13.0682C275.613 13.7955 276.079 14.5114 276.397 15.2159H276.619V2.09091H283.863V37H276.704V32.8068H276.397C276.056 33.5341 275.573 34.2557 274.948 34.9716C274.335 35.6761 273.533 36.2614 272.545 36.7273C271.567 37.1932 270.374 37.4261 268.965 37.4261ZM271.266 31.6477C272.437 31.6477 273.425 31.3295 274.232 30.6932C275.05 30.0455 275.675 29.142 276.107 27.983C276.55 26.8239 276.772 25.4659 276.772 23.9091C276.772 22.3523 276.556 21 276.124 19.8523C275.692 18.7045 275.067 17.8182 274.249 17.1932C273.431 16.5682 272.437 16.2557 271.266 16.2557C270.073 16.2557 269.067 16.5795 268.249 17.2273C267.431 17.875 266.812 18.7727 266.391 19.9205C265.971 21.0682 265.761 22.3977 265.761 23.9091C265.761 25.4318 265.971 26.7784 266.391 27.9489C266.823 29.108 267.442 30.017 268.249 30.6761C269.067 31.3239 270.073 31.6477 271.266 31.6477ZM301.573 37.5114C298.88 37.5114 296.562 36.9659 294.618 35.875C292.687 34.7727 291.198 33.2159 290.152 31.2045C289.107 29.1818 288.584 26.7898 288.584 24.0284C288.584 21.3352 289.107 18.9716 290.152 16.9375C291.198 14.9034 292.67 13.3182 294.567 12.1818C296.476 11.0455 298.715 10.4773 301.283 10.4773C303.01 10.4773 304.618 10.7557 306.107 11.3125C307.607 11.858 308.914 12.6818 310.027 13.7841C311.152 14.8864 312.027 16.2727 312.652 17.9432C313.277 19.6023 313.59 21.5455 313.59 23.7727V25.767H291.482V21.267H306.755C306.755 20.2216 306.527 19.2955 306.073 18.4886C305.618 17.6818 304.988 17.0511 304.181 16.5966C303.385 16.1307 302.459 15.8977 301.402 15.8977C300.3 15.8977 299.323 16.1534 298.471 16.6648C297.63 17.1648 296.971 17.8409 296.493 18.6932C296.016 19.5341 295.772 20.4716 295.76 21.5057V25.7841C295.76 27.0795 295.999 28.1989 296.476 29.142C296.965 30.0852 297.652 30.8125 298.539 31.3239C299.425 31.8352 300.476 32.0909 301.692 32.0909C302.499 32.0909 303.238 31.9773 303.908 31.75C304.579 31.5227 305.152 31.1818 305.63 30.7273C306.107 30.2727 306.471 29.7159 306.721 29.0568L313.437 29.5C313.096 31.1136 312.397 32.5227 311.34 33.7273C310.295 34.9205 308.942 35.8523 307.283 36.5227C305.635 37.1818 303.732 37.5114 301.573 37.5114ZM339.921 18.2841L333.273 18.6932C333.159 18.125 332.915 17.6136 332.54 17.1591C332.165 16.6932 331.671 16.3239 331.057 16.0511C330.455 15.767 329.733 15.625 328.892 15.625C327.767 15.625 326.818 15.8636 326.046 16.3409C325.273 16.8068 324.887 17.4318 324.887 18.2159C324.887 18.8409 325.137 19.3693 325.637 19.8011C326.137 20.233 326.995 20.5795 328.21 20.8409L332.949 21.7955C335.495 22.3182 337.392 23.1591 338.642 24.3182C339.892 25.4773 340.517 27 340.517 28.8864C340.517 30.6023 340.012 32.108 339 33.4034C338 34.6989 336.625 35.7102 334.875 36.4375C333.137 37.1534 331.131 37.5114 328.858 37.5114C325.392 37.5114 322.631 36.7898 320.574 35.3466C318.529 33.892 317.33 31.9148 316.978 29.4148L324.12 29.0398C324.335 30.0966 324.858 30.9034 325.688 31.4602C326.517 32.0057 327.58 32.2784 328.875 32.2784C330.148 32.2784 331.171 32.0341 331.943 31.5455C332.728 31.0455 333.125 30.4034 333.137 29.6193C333.125 28.9602 332.847 28.4205 332.301 28C331.756 27.5682 330.915 27.2386 329.779 27.0114L325.245 26.108C322.688 25.5966 320.784 24.7102 319.534 23.4489C318.296 22.1875 317.676 20.5795 317.676 18.625C317.676 16.9432 318.131 15.4943 319.04 14.2784C319.96 13.0625 321.25 12.125 322.909 11.4659C324.58 10.8068 326.534 10.4773 328.773 10.4773C332.08 10.4773 334.682 11.1761 336.58 12.5739C338.489 13.9716 339.603 15.875 339.921 18.2841ZM356.83 37.5114C354.136 37.5114 351.818 36.9659 349.875 35.875C347.943 34.7727 346.455 33.2159 345.409 31.2045C344.364 29.1818 343.841 26.7898 343.841 24.0284C343.841 21.3352 344.364 18.9716 345.409 16.9375C346.455 14.9034 347.926 13.3182 349.824 12.1818C351.733 11.0455 353.972 10.4773 356.54 10.4773C358.267 10.4773 359.875 10.7557 361.364 11.3125C362.864 11.858 364.17 12.6818 365.284 13.7841C366.409 14.8864 367.284 16.2727 367.909 17.9432C368.534 19.6023 368.847 21.5455 368.847 23.7727V25.767H346.739V21.267H362.011C362.011 20.2216 361.784 19.2955 361.33 18.4886C360.875 17.6818 360.244 17.0511 359.438 16.5966C358.642 16.1307 357.716 15.8977 356.659 15.8977C355.557 15.8977 354.58 16.1534 353.727 16.6648C352.886 17.1648 352.227 17.8409 351.75 18.6932C351.273 19.5341 351.028 20.4716 351.017 21.5057V25.7841C351.017 27.0795 351.256 28.1989 351.733 29.142C352.222 30.0852 352.909 30.8125 353.795 31.3239C354.682 31.8352 355.733 32.0909 356.949 32.0909C357.756 32.0909 358.494 31.9773 359.165 31.75C359.835 31.5227 360.409 31.1818 360.886 30.7273C361.364 30.2727 361.727 29.7159 361.977 29.0568L368.693 29.5C368.352 31.1136 367.653 32.5227 366.597 33.7273C365.551 34.9205 364.199 35.8523 362.54 36.5227C360.892 37.1818 358.989 37.5114 356.83 37.5114ZM373.393 10.8182H380.655V38.2955C380.655 40.3182 380.257 41.9545 379.461 43.2045C378.666 44.4545 377.524 45.3693 376.035 45.9489C374.558 46.5284 372.791 46.8182 370.734 46.8182C370.484 46.8182 370.246 46.8125 370.018 46.8011C369.78 46.8011 369.53 46.7955 369.268 46.7841V41.108C369.461 41.1193 369.632 41.125 369.78 41.125C369.916 41.1364 370.064 41.142 370.223 41.142C371.393 41.142 372.211 40.892 372.677 40.392C373.155 39.9034 373.393 39.1648 373.393 38.1761V10.8182ZM377.007 7.44318C375.939 7.44318 375.018 7.08523 374.246 6.36932C373.473 5.64204 373.086 4.77273 373.086 3.76136C373.086 2.76136 373.473 1.90341 374.246 1.1875C375.018 0.460226 375.939 0.0965891 377.007 0.0965891C378.098 0.0965891 379.024 0.460226 379.785 1.1875C380.558 1.90341 380.944 2.76136 380.944 3.76136C380.944 4.77273 380.558 5.64204 379.785 6.36932C379.024 7.08523 378.098 7.44318 377.007 7.44318ZM393.745 37.4943C392.075 37.4943 390.586 37.2045 389.279 36.625C387.973 36.0341 386.938 35.1648 386.177 34.017C385.427 32.858 385.052 31.4148 385.052 29.6875C385.052 28.233 385.319 27.0114 385.853 26.0227C386.387 25.0341 387.115 24.2386 388.035 23.6364C388.955 23.0341 390.001 22.5795 391.171 22.2727C392.353 21.9659 393.592 21.75 394.887 21.625C396.41 21.4659 397.637 21.3182 398.569 21.1818C399.501 21.0341 400.177 20.8182 400.598 20.5341C401.018 20.25 401.228 19.8295 401.228 19.2727V19.1705C401.228 18.0909 400.887 17.2557 400.205 16.6648C399.535 16.0739 398.58 15.7784 397.342 15.7784C396.035 15.7784 394.995 16.0682 394.223 16.6477C393.45 17.2159 392.938 17.9318 392.688 18.7955L385.973 18.25C386.313 16.6591 386.984 15.2841 387.984 14.125C388.984 12.9545 390.274 12.0568 391.853 11.4318C393.444 10.7955 395.285 10.4773 397.376 10.4773C398.83 10.4773 400.223 10.6477 401.552 10.9886C402.893 11.3295 404.08 11.858 405.115 12.5739C406.16 13.2898 406.984 14.2102 407.586 15.3352C408.188 16.4489 408.49 17.7841 408.49 19.3409V37H401.603V33.3693H401.399C400.978 34.1875 400.416 34.9091 399.711 35.5341C399.007 36.1477 398.16 36.6307 397.171 36.983C396.183 37.3239 395.041 37.4943 393.745 37.4943ZM395.825 32.483C396.893 32.483 397.836 32.2727 398.654 31.8523C399.473 31.4205 400.115 30.8409 400.58 30.1136C401.046 29.3864 401.279 28.5625 401.279 27.642V24.8636C401.052 25.0114 400.74 25.1477 400.342 25.2727C399.955 25.3864 399.518 25.4943 399.029 25.5966C398.541 25.6875 398.052 25.7727 397.563 25.8523C397.075 25.9205 396.632 25.983 396.234 26.0398C395.382 26.1648 394.637 26.3636 394.001 26.6364C393.365 26.9091 392.87 27.2784 392.518 27.7443C392.166 28.1989 391.99 28.767 391.99 29.4489C391.99 30.4375 392.348 31.1932 393.063 31.7159C393.791 32.2273 394.711 32.483 395.825 32.483ZM436.78 37.5114C434.087 37.5114 431.769 36.9659 429.826 35.875C427.894 34.7727 426.405 33.2159 425.36 31.2045C424.314 29.1818 423.792 26.7898 423.792 24.0284C423.792 21.3352 424.314 18.9716 425.36 16.9375C426.405 14.9034 427.877 13.3182 429.775 12.1818C431.684 11.0455 433.922 10.4773 436.491 10.4773C438.218 10.4773 439.826 10.7557 441.314 11.3125C442.814 11.858 444.121 12.6818 445.235 13.7841C446.36 14.8864 447.235 16.2727 447.86 17.9432C448.485 19.6023 448.797 21.5455 448.797 23.7727V25.767H426.689V21.267H441.962C441.962 20.2216 441.735 19.2955 441.28 18.4886C440.826 17.6818 440.195 17.0511 439.388 16.5966C438.593 16.1307 437.667 15.8977 436.61 15.8977C435.508 15.8977 434.53 16.1534 433.678 16.6648C432.837 17.1648 432.178 17.8409 431.701 18.6932C431.223 19.5341 430.979 20.4716 430.968 21.5057V25.7841C430.968 27.0795 431.206 28.1989 431.684 29.142C432.172 30.0852 432.86 30.8125 433.746 31.3239C434.633 31.8352 435.684 32.0909 436.9 32.0909C437.706 32.0909 438.445 31.9773 439.116 31.75C439.786 31.5227 440.36 31.1818 440.837 30.7273C441.314 30.2727 441.678 29.7159 441.928 29.0568L448.644 29.5C448.303 31.1136 447.604 32.5227 446.547 33.7273C445.502 34.9205 444.15 35.8523 442.491 36.5227C440.843 37.1818 438.939 37.5114 436.78 37.5114ZM458.943 10.8182L463.75 19.9716L468.676 10.8182H476.125L468.54 23.9091L476.33 37H468.915L463.75 27.9489L458.671 37H451.171L458.943 23.9091L451.443 10.8182H458.943ZM491.138 37.5114C488.456 37.5114 486.149 36.9432 484.217 35.8068C482.297 34.6591 480.82 33.0682 479.786 31.0341C478.763 29 478.251 26.6591 478.251 24.0114C478.251 21.3295 478.768 18.9773 479.803 16.9545C480.848 14.9205 482.331 13.3352 484.251 12.1989C486.172 11.0511 488.456 10.4773 491.104 10.4773C493.388 10.4773 495.388 10.892 497.104 11.7216C498.82 12.5511 500.178 13.7159 501.178 15.2159C502.178 16.7159 502.729 18.4773 502.831 20.5H495.979C495.786 19.1932 495.274 18.142 494.445 17.3466C493.626 16.5398 492.553 16.1364 491.223 16.1364C490.098 16.1364 489.115 16.4432 488.274 17.0568C487.445 17.6591 486.797 18.5398 486.331 19.6989C485.865 20.858 485.632 22.2614 485.632 23.9091C485.632 25.5795 485.859 27 486.314 28.1705C486.78 29.3409 487.433 30.233 488.274 30.8466C489.115 31.4602 490.098 31.767 491.223 31.767C492.053 31.767 492.797 31.5966 493.456 31.2557C494.126 30.9148 494.678 30.4205 495.109 29.7727C495.553 29.1136 495.842 28.3239 495.979 27.4034H502.831C502.717 29.4034 502.172 31.1648 501.195 32.6875C500.229 34.1989 498.893 35.3807 497.189 36.233C495.484 37.0852 493.467 37.5114 491.138 37.5114ZM514.549 2.09091V37H507.288V2.09091H514.549ZM536.964 25.8523V10.8182H544.225V37H537.254V32.2443H536.981C536.39 33.7784 535.407 35.0114 534.032 35.9432C532.669 36.875 531.004 37.3409 529.038 37.3409C527.288 37.3409 525.748 36.9432 524.419 36.1477C523.089 35.3523 522.049 34.2216 521.299 32.7557C520.561 31.2898 520.186 29.5341 520.174 27.4886V10.8182H527.436V26.1932C527.447 27.7386 527.862 28.9602 528.68 29.858C529.498 30.7557 530.595 31.2045 531.97 31.2045C532.845 31.2045 533.663 31.0057 534.424 30.608C535.186 30.1989 535.799 29.5966 536.265 28.8011C536.742 28.0057 536.975 27.0227 536.964 25.8523ZM549.842 37V10.8182H557.103V37H549.842ZM553.489 7.44318C552.41 7.44318 551.484 7.08523 550.711 6.36932C549.95 5.64204 549.569 4.77273 549.569 3.76136C549.569 2.76136 549.95 1.90341 550.711 1.1875C551.484 0.460226 552.41 0.0965891 553.489 0.0965891C554.569 0.0965891 555.489 0.460226 556.251 1.1875C557.023 1.90341 557.41 2.76136 557.41 3.76136C557.41 4.77273 557.023 5.64204 556.251 6.36932C555.489 7.08523 554.569 7.44318 553.489 7.44318ZM562.728 37V10.8182H569.767V15.3864H570.04C570.517 13.7614 571.319 12.5341 572.444 11.7045C573.569 10.8636 574.864 10.4432 576.33 10.4432C576.694 10.4432 577.086 10.4659 577.506 10.5114C577.927 10.5568 578.296 10.6193 578.614 10.6989V17.142C578.273 17.0398 577.802 16.9489 577.199 16.8693C576.597 16.7898 576.046 16.75 575.546 16.75C574.478 16.75 573.523 16.983 572.682 17.4489C571.853 17.9034 571.194 18.5398 570.705 19.358C570.228 20.1761 569.989 21.1193 569.989 22.1875V37H562.728ZM600.56 37.4943C598.889 37.4943 597.401 37.2045 596.094 36.625C594.787 36.0341 593.753 35.1648 592.991 34.017C592.241 32.858 591.866 31.4148 591.866 29.6875C591.866 28.233 592.134 27.0114 592.668 26.0227C593.202 25.0341 593.929 24.2386 594.849 23.6364C595.77 23.0341 596.815 22.5795 597.986 22.2727C599.168 21.9659 600.406 21.75 601.702 21.625C603.224 21.4659 604.452 21.3182 605.384 21.1818C606.315 21.0341 606.992 20.8182 607.412 20.5341C607.832 20.25 608.043 19.8295 608.043 19.2727V19.1705C608.043 18.0909 607.702 17.2557 607.02 16.6648C606.349 16.0739 605.395 15.7784 604.156 15.7784C602.849 15.7784 601.81 16.0682 601.037 16.6477C600.264 17.2159 599.753 17.9318 599.503 18.7955L592.787 18.25C593.128 16.6591 593.798 15.2841 594.798 14.125C595.798 12.9545 597.088 12.0568 598.668 11.4318C600.259 10.7955 602.099 10.4773 604.19 10.4773C605.645 10.4773 607.037 10.6477 608.367 10.9886C609.707 11.3295 610.895 11.858 611.929 12.5739C612.974 13.2898 613.798 14.2102 614.401 15.3352C615.003 16.4489 615.304 17.7841 615.304 19.3409V37H608.418V33.3693H608.213C607.793 34.1875 607.23 34.9091 606.526 35.5341C605.821 36.1477 604.974 36.6307 603.986 36.983C602.997 37.3239 601.855 37.4943 600.56 37.4943ZM602.639 32.483C603.707 32.483 604.651 32.2727 605.469 31.8523C606.287 31.4205 606.929 30.8409 607.395 30.1136C607.861 29.3864 608.094 28.5625 608.094 27.642V24.8636C607.867 25.0114 607.554 25.1477 607.156 25.2727C606.77 25.3864 606.332 25.4943 605.844 25.5966C605.355 25.6875 604.866 25.7727 604.378 25.8523C603.889 25.9205 603.446 25.983 603.048 26.0398C602.196 26.1648 601.452 26.3636 600.815 26.6364C600.179 26.9091 599.685 27.2784 599.332 27.7443C598.98 28.1989 598.804 28.767 598.804 29.4489C598.804 30.4375 599.162 31.1932 599.878 31.7159C600.605 32.2273 601.526 32.483 602.639 32.483ZM179.969 95V68.8182H186.89V73.4375H187.197C187.742 71.9034 188.651 70.6932 189.924 69.8068C191.197 68.9205 192.719 68.4773 194.492 68.4773C196.288 68.4773 197.816 68.9261 199.077 69.8239C200.339 70.7102 201.18 71.9148 201.6 73.4375H201.873C202.407 71.9375 203.373 70.7386 204.77 69.8409C206.18 68.9318 207.844 68.4773 209.765 68.4773C212.208 68.4773 214.191 69.2557 215.714 70.8125C217.248 72.358 218.015 74.5511 218.015 77.392V95H210.77V78.8239C210.77 77.3693 210.384 76.2784 209.611 75.5511C208.839 74.8239 207.873 74.4602 206.714 74.4602C205.395 74.4602 204.367 74.8807 203.628 75.7216C202.89 76.5511 202.52 77.6477 202.52 79.0114V95H195.481V78.6705C195.481 77.3864 195.111 76.3636 194.373 75.6023C193.645 74.8409 192.685 74.4602 191.492 74.4602C190.685 74.4602 189.958 74.6648 189.31 75.0739C188.674 75.4716 188.168 76.0341 187.793 76.7614C187.418 77.4773 187.231 78.3182 187.231 79.2841V95H179.969ZM240.348 83.8523V68.8182H247.61V95H240.638V90.2443H240.365C239.775 91.7784 238.792 93.0114 237.417 93.9432C236.053 94.875 234.388 95.3409 232.422 95.3409C230.672 95.3409 229.132 94.9432 227.803 94.1477C226.473 93.3523 225.434 92.2216 224.684 90.7557C223.945 89.2898 223.57 87.5341 223.559 85.4886V68.8182H230.82V84.1932C230.831 85.7386 231.246 86.9602 232.064 87.858C232.882 88.7557 233.979 89.2045 235.354 89.2045C236.229 89.2045 237.047 89.0057 237.809 88.608C238.57 88.1989 239.184 87.5966 239.65 86.8011C240.127 86.0057 240.36 85.0227 240.348 83.8523ZM233.002 65.4432L236.615 57.6875H243.331L238.132 65.4432H233.002ZM275.01 76.2841L268.362 76.6932C268.249 76.125 268.004 75.6136 267.629 75.1591C267.254 74.6932 266.76 74.3239 266.146 74.0511C265.544 73.767 264.823 73.625 263.982 73.625C262.857 73.625 261.908 73.8636 261.135 74.3409C260.362 74.8068 259.976 75.4318 259.976 76.2159C259.976 76.8409 260.226 77.3693 260.726 77.8011C261.226 78.233 262.084 78.5795 263.3 78.8409L268.038 79.7955C270.584 80.3182 272.482 81.1591 273.732 82.3182C274.982 83.4773 275.607 85 275.607 86.8864C275.607 88.6023 275.101 90.108 274.09 91.4034C273.09 92.6989 271.715 93.7102 269.965 94.4375C268.226 95.1534 266.22 95.5114 263.948 95.5114C260.482 95.5114 257.72 94.7898 255.663 93.3466C253.618 91.892 252.419 89.9148 252.067 87.4148L259.209 87.0398C259.425 88.0966 259.948 88.9034 260.777 89.4602C261.607 90.0057 262.669 90.2784 263.965 90.2784C265.237 90.2784 266.26 90.0341 267.033 89.5455C267.817 89.0455 268.215 88.4034 268.226 87.6193C268.215 86.9602 267.936 86.4205 267.391 86C266.845 85.5682 266.004 85.2386 264.868 85.0114L260.334 84.108C257.777 83.5966 255.874 82.7102 254.624 81.4489C253.385 80.1875 252.766 78.5795 252.766 76.625C252.766 74.9432 253.22 73.4943 254.129 72.2784C255.05 71.0625 256.34 70.125 257.999 69.4659C259.669 68.8068 261.624 68.4773 263.862 68.4773C267.169 68.4773 269.771 69.1761 271.669 70.5739C273.578 71.9716 274.692 73.875 275.01 76.2841ZM279.987 95V68.8182H287.248V95H279.987ZM283.635 65.4432C282.555 65.4432 281.629 65.0852 280.856 64.3693C280.095 63.642 279.714 62.7727 279.714 61.7614C279.714 60.7614 280.095 59.9034 280.856 59.1875C281.629 58.4602 282.555 58.0966 283.635 58.0966C284.714 58.0966 285.635 58.4602 286.396 59.1875C287.169 59.9034 287.555 60.7614 287.555 61.7614C287.555 62.7727 287.169 63.642 286.396 64.3693C285.635 65.0852 284.714 65.4432 283.635 65.4432ZM304.703 95.5114C302.021 95.5114 299.714 94.9432 297.782 93.8068C295.862 92.6591 294.385 91.0682 293.35 89.0341C292.328 87 291.816 84.6591 291.816 82.0114C291.816 79.3295 292.333 76.9773 293.368 74.9545C294.413 72.9205 295.896 71.3352 297.816 70.1989C299.737 69.0511 302.021 68.4773 304.669 68.4773C306.953 68.4773 308.953 68.892 310.669 69.7216C312.385 70.5511 313.743 71.7159 314.743 73.2159C315.743 74.7159 316.294 76.4773 316.396 78.5H309.544C309.35 77.1932 308.839 76.142 308.01 75.3466C307.191 74.5398 306.118 74.1364 304.788 74.1364C303.663 74.1364 302.68 74.4432 301.839 75.0568C301.01 75.6591 300.362 76.5398 299.896 77.6989C299.43 78.858 299.197 80.2614 299.197 81.9091C299.197 83.5795 299.424 85 299.879 86.1705C300.345 87.3409 300.998 88.233 301.839 88.8466C302.68 89.4602 303.663 89.767 304.788 89.767C305.618 89.767 306.362 89.5966 307.021 89.2557C307.691 88.9148 308.243 88.4205 308.674 87.7727C309.118 87.1136 309.407 86.3239 309.544 85.4034H316.396C316.282 87.4034 315.737 89.1648 314.76 90.6875C313.794 92.1989 312.458 93.3807 310.754 94.233C309.049 95.0852 307.032 95.5114 304.703 95.5114ZM328.319 95.4943C326.649 95.4943 325.16 95.2045 323.853 94.625C322.546 94.0341 321.512 93.1648 320.751 92.017C320.001 90.858 319.626 89.4148 319.626 87.6875C319.626 86.233 319.893 85.0114 320.427 84.0227C320.961 83.0341 321.688 82.2386 322.609 81.6364C323.529 81.0341 324.575 80.5795 325.745 80.2727C326.927 79.9659 328.166 79.75 329.461 79.625C330.984 79.4659 332.211 79.3182 333.143 79.1818C334.075 79.0341 334.751 78.8182 335.171 78.5341C335.592 78.25 335.802 77.8295 335.802 77.2727V77.1705C335.802 76.0909 335.461 75.2557 334.779 74.6648C334.109 74.0739 333.154 73.7784 331.916 73.7784C330.609 73.7784 329.569 74.0682 328.796 74.6477C328.024 75.2159 327.512 75.9318 327.262 76.7955L320.546 76.25C320.887 74.6591 321.558 73.2841 322.558 72.125C323.558 70.9545 324.847 70.0568 326.427 69.4318C328.018 68.7955 329.859 68.4773 331.95 68.4773C333.404 68.4773 334.796 68.6477 336.126 68.9886C337.467 69.3295 338.654 69.858 339.688 70.5739C340.734 71.2898 341.558 72.2102 342.16 73.3352C342.762 74.4489 343.063 75.7841 343.063 77.3409V95H336.177V91.3693H335.972C335.552 92.1875 334.989 92.9091 334.285 93.5341C333.58 94.1477 332.734 94.6307 331.745 94.983C330.757 95.3239 329.614 95.4943 328.319 95.4943ZM330.399 90.483C331.467 90.483 332.41 90.2727 333.228 89.8523C334.046 89.4205 334.688 88.8409 335.154 88.1136C335.62 87.3864 335.853 86.5625 335.853 85.642V82.8636C335.626 83.0114 335.313 83.1477 334.916 83.2727C334.529 83.3864 334.092 83.4943 333.603 83.5966C333.114 83.6875 332.626 83.7727 332.137 83.8523C331.649 83.9205 331.205 83.983 330.808 84.0398C329.955 84.1648 329.211 84.3636 328.575 84.6364C327.938 84.9091 327.444 85.2784 327.092 85.7443C326.739 86.1989 326.563 86.767 326.563 87.4489C326.563 88.4375 326.921 89.1932 327.637 89.7159C328.364 90.2273 329.285 90.483 330.399 90.483Z" fill="white"/>
<path d="M361.025 81.0057C361.025 76.7784 361.587 72.8864 362.712 69.3295C363.848 65.7727 365.581 62.4773 367.911 59.4432H374.848C373.962 60.5682 373.138 61.9432 372.377 63.5682C371.615 65.1818 370.951 66.9545 370.382 68.8864C369.814 70.8182 369.371 72.8182 369.053 74.8864C368.735 76.9432 368.576 78.983 368.576 81.0057C368.576 83.6989 368.848 86.4205 369.394 89.1705C369.951 91.9091 370.701 94.4545 371.644 96.8068C372.598 99.1591 373.667 101.085 374.848 102.585H367.911C365.581 99.5511 363.848 96.2557 362.712 92.6989C361.587 89.142 361.025 85.2443 361.025 81.0057ZM383.115 95.4432C381.99 95.4432 381.024 95.0455 380.217 94.25C379.422 93.4432 379.024 92.4773 379.024 91.3523C379.024 90.2386 379.422 89.2841 380.217 88.4886C381.024 87.6932 381.99 87.2955 383.115 87.2955C384.206 87.2955 385.161 87.6932 385.979 88.4886C386.797 89.2841 387.206 90.2386 387.206 91.3523C387.206 92.1023 387.013 92.7898 386.627 93.4148C386.252 94.0284 385.757 94.5227 385.144 94.8977C384.53 95.2614 383.854 95.4432 383.115 95.4432ZM397.22 95.4432C396.095 95.4432 395.129 95.0455 394.322 94.25C393.527 93.4432 393.129 92.4773 393.129 91.3523C393.129 90.2386 393.527 89.2841 394.322 88.4886C395.129 87.6932 396.095 87.2955 397.22 87.2955C398.311 87.2955 399.266 87.6932 400.084 88.4886C400.902 89.2841 401.311 90.2386 401.311 91.3523C401.311 92.1023 401.118 92.7898 400.731 93.4148C400.356 94.0284 399.862 94.5227 399.248 94.8977C398.635 95.2614 397.959 95.4432 397.22 95.4432ZM411.325 95.4432C410.2 95.4432 409.234 95.0455 408.427 94.25C407.632 93.4432 407.234 92.4773 407.234 91.3523C407.234 90.2386 407.632 89.2841 408.427 88.4886C409.234 87.6932 410.2 87.2955 411.325 87.2955C412.416 87.2955 413.37 87.6932 414.189 88.4886C415.007 89.2841 415.416 90.2386 415.416 91.3523C415.416 92.1023 415.223 92.7898 414.836 93.4148C414.461 94.0284 413.967 94.5227 413.353 94.8977C412.74 95.2614 412.064 95.4432 411.325 95.4432ZM433.424 81.0057C433.424 85.2443 432.856 89.142 431.72 92.6989C430.595 96.2557 428.867 99.5511 426.538 102.585H419.6C420.487 101.46 421.31 100.085 422.072 98.4602C422.833 96.8352 423.498 95.0625 424.066 93.142C424.634 91.2102 425.078 89.2102 425.396 87.142C425.714 85.0739 425.873 83.0284 425.873 81.0057C425.873 78.3125 425.595 75.5966 425.038 72.858C424.492 70.108 423.742 67.5625 422.788 65.2216C421.845 62.8693 420.782 60.9432 419.6 59.4432H426.538C428.867 62.4773 430.595 65.7727 431.72 69.3295C432.856 72.8864 433.424 76.7784 433.424 81.0057Z" fill="url(#paint0_radial_14_840)" fill-opacity="0.61"/>
<defs>
<radialGradient id="paint0_radial_14_840" cx="0" cy="0" r="1" gradientUnits="userSpaceOnUse" gradientTransform="translate(307.5 49) rotate(90) scale(54 354.5)">
<stop stop-color="#CF146E"/>
<stop offset="1" stop-color="#CF146E" stop-opacity="0"/>
</radialGradient>
</defs>
</svg>
