<svg width="20" height="20" viewBox="0 0 20 20" fill="none" xmlns="http://www.w3.org/2000/svg">
<g clip-path="url(#clip0_28_945)">
<path d="M14.1668 3.75C12.4168 3.75 10.8752 4.625 10.0002 6C9.12516 4.625 7.5835 3.75 5.8335 3.75C3.0835 3.75 0.833496 6 0.833496 8.75C0.833496 13.7083 10.0002 18.75 10.0002 18.75C10.0002 18.75 19.1668 13.75 19.1668 8.75C19.1668 6 16.9168 3.75 14.1668 3.75Z" fill="white"/>
<g clip-path="url(#clip1_28_945)">
<path d="M14.1668 3.75C12.4168 3.75 10.8752 4.625 10.0002 6C9.12516 4.625 7.5835 3.75 5.8335 3.75C3.0835 3.75 0.833496 6 0.833496 8.75C0.833496 13.7083 10.0002 18.75 10.0002 18.75C10.0002 18.75 19.1668 13.75 19.1668 8.75C19.1668 6 16.9168 3.75 14.1668 3.75Z" fill="white"/>
<path d="M14.1668 3.75C12.4168 3.75 10.8752 4.625 10.0002 6C9.12516 4.625 7.5835 3.75 5.8335 3.75C3.0835 3.75 0.833496 6 0.833496 8.75C0.833496 13.7083 10.0002 18.75 10.0002 18.75C10.0002 18.75 19.1668 13.75 19.1668 8.75C19.1668 6 16.9168 3.75 14.1668 3.75Z" fill="white"/>
</g>
</g>
<defs>
<clipPath id="clip0_28_945">
<rect width="20" height="20" fill="white"/>
</clipPath>
<clipPath id="clip1_28_945">
<rect width="20" height="20" fill="white"/>
</clipPath>
</defs>
</svg>
