<svg width="993" height="109" viewBox="0 0 993 109" fill="none" xmlns="http://www.w3.org/2000/svg">
<g filter="url(#filter0_b_28_769)">
<path d="M976 0.999999C984.837 1 992 8.16344 992 17L992 92C992 100.837 984.837 108 976 108L17 108C8.16345 108 0.999996 100.837 0.999996 92L0.999999 17C1 8.16341 8.16345 0.999957 17 0.999957L976 0.999999Z" fill="url(#paint0_linear_28_769)" fill-opacity="0.5"/>
<path d="M992.5 17C992.5 7.8873 985.113 0.5 976 0.499999L17 0.499957C7.88733 0.499957 0.5 7.88727 0.499999 17L0.499996 92C0.499996 101.113 7.88732 108.5 17 108.5L976 108.5C985.113 108.5 992.5 101.113 992.5 92L992.5 17Z" stroke="url(#paint1_radial_28_769)"/>
<path d="M992.5 17C992.5 7.8873 985.113 0.5 976 0.499999L17 0.499957C7.88733 0.499957 0.5 7.88727 0.499999 17L0.499996 92C0.499996 101.113 7.88732 108.5 17 108.5L976 108.5C985.113 108.5 992.5 101.113 992.5 92L992.5 17Z" stroke="url(#paint2_radial_28_769)"/>
<path d="M992.5 17C992.5 7.8873 985.113 0.5 976 0.499999L17 0.499957C7.88733 0.499957 0.5 7.88727 0.499999 17L0.499996 92C0.499996 101.113 7.88732 108.5 17 108.5L976 108.5C985.113 108.5 992.5 101.113 992.5 92L992.5 17Z" stroke="url(#paint3_radial_28_769)"/>
</g>
<path d="M901.948 43.1607C900.718 41.8612 899.068 41.0931 897.324 41.0089C895.579 40.9246 893.868 41.5303 892.53 42.7058C892.376 42.8275 892.191 42.8977 891.998 42.9072C891.804 42.9012 891.618 42.8307 891.465 42.7058C890.127 41.5296 888.416 40.9235 886.672 41.0077C884.928 41.092 883.277 41.8605 882.049 43.1607C881.397 43.8398 880.881 44.6477 880.529 45.5375C880.177 46.4273 879.997 47.3813 880 48.3444C880 50.3024 880.728 52.1436 882.004 53.4777L889.661 62.8688C889.95 63.2234 890.308 63.5082 890.712 63.7036C891.116 63.8989 891.555 64 892 64C892.445 64 892.884 63.8989 893.288 63.7036C893.692 63.5082 894.05 63.2234 894.339 62.8688L901.949 53.5281C902.601 52.849 903.118 52.0411 903.47 51.1514C903.822 50.2616 904.002 49.3076 904 48.3444C904.001 47.3812 903.821 46.4272 903.469 45.5375C903.116 44.6477 902.599 43.84 901.948 43.1607ZM900.709 52.327L893.052 61.7181C892.525 62.3653 891.471 62.3653 890.945 61.7181L883.243 52.2766C882.749 51.7614 882.357 51.1485 882.091 50.4735C881.824 49.7985 881.688 49.0749 881.69 48.3444C881.69 46.8592 882.241 45.4622 883.243 44.4121C883.736 43.8924 884.322 43.4798 884.967 43.1981C885.612 42.9164 886.304 42.7711 887.003 42.7705C888.23 42.7697 889.419 43.2209 890.361 44.0453C890.432 44.11 891.061 44.6764 891.998 44.6764C892.909 44.6764 893.553 44.119 893.611 44.0651C894.626 43.1735 895.923 42.714 897.246 42.778C898.568 42.8419 899.82 43.4246 900.752 44.4103C901.248 44.9315 901.64 45.5504 901.907 46.2314C902.173 46.9124 902.309 47.642 902.305 48.378C902.301 49.1141 902.158 49.842 901.884 50.5198C901.61 51.1975 901.21 51.8118 900.709 52.327Z" fill="#B3B3B3"/>
<path fill-rule="evenodd" clip-rule="evenodd" d="M850.933 55.7388V45.9333H849.067V55.7267L845.475 51.8509L844.06 52.9776L850.002 59.3944L855.966 52.9811L854.551 51.8492L850.933 55.7388ZM850 39C842.268 39 836 44.8205 836 52C836 59.1795 842.268 65 850 65C857.732 65 864 59.1795 864 52C864 44.8205 857.732 39 850 39ZM850 63.2667C843.31 63.2667 837.867 58.2123 837.867 52C837.867 45.7877 843.31 40.7333 850 40.7333C856.69 40.7333 862.133 45.7877 862.133 52C862.133 58.2123 856.69 63.2667 850 63.2667Z" fill="#B3B3B3"/>
<defs>
<filter id="filter0_b_28_769" x="-42" y="-42" width="1077" height="193" filterUnits="userSpaceOnUse" color-interpolation-filters="sRGB">
<feFlood flood-opacity="0" result="BackgroundImageFix"/>
<feGaussianBlur in="BackgroundImageFix" stdDeviation="21"/>
<feComposite in2="SourceAlpha" operator="in" result="effect1_backgroundBlur_28_769"/>
<feBlend mode="normal" in="SourceGraphic" in2="effect1_backgroundBlur_28_769" result="shape"/>
</filter>
<linearGradient id="paint0_linear_28_769" x1="992" y1="1" x2="927.847" y2="304.144" gradientUnits="userSpaceOnUse">
<stop stop-color="white" stop-opacity="0.4"/>
<stop offset="1" stop-color="white" stop-opacity="0"/>
</linearGradient>
<radialGradient id="paint1_radial_28_769" cx="0" cy="0" r="1" gradientUnits="userSpaceOnUse" gradientTransform="translate(496.5 54.5) rotate(-5.66625) scale(691.415 105.775)">
<stop stop-color="white"/>
<stop offset="1" stop-color="white" stop-opacity="0"/>
</radialGradient>
<radialGradient id="paint2_radial_28_769" cx="0" cy="0" r="1" gradientUnits="userSpaceOnUse" gradientTransform="translate(496.5 54.5) rotate(-6.07988) scale(505.123 90.7331)">
<stop stop-color="#CF146E"/>
<stop offset="1" stop-color="#CF146E" stop-opacity="0"/>
</radialGradient>
<radialGradient id="paint3_radial_28_769" cx="0" cy="0" r="1" gradientUnits="userSpaceOnUse" gradientTransform="translate(496.5 54.5) rotate(-173.63) scale(528.493 87.1013)">
<stop stop-color="#151515"/>
<stop offset="1" stop-color="#151515" stop-opacity="0"/>
</radialGradient>
</defs>
</svg>
