<svg width="993" height="109" viewBox="0 0 993 109" fill="none" xmlns="http://www.w3.org/2000/svg">
<g filter="url(#filter0_b_28_871)">
<path d="M976 0.999999C984.837 1 992 8.16344 992 17L992 92C992 100.837 984.837 108 976 108L17 108C8.16345 108 0.999996 100.837 0.999996 92L0.999999 17C1 8.16341 8.16345 0.999957 17 0.999957L976 0.999999Z" fill="url(#paint0_linear_28_871)" fill-opacity="0.5"/>
<path d="M992.5 17C992.5 7.8873 985.113 0.5 976 0.499999L17 0.499957C7.88733 0.499957 0.5 7.88727 0.499999 17L0.499996 92C0.499996 101.113 7.88732 108.5 17 108.5L976 108.5C985.113 108.5 992.5 101.113 992.5 92L992.5 17Z" stroke="url(#paint1_radial_28_871)"/>
<path d="M992.5 17C992.5 7.8873 985.113 0.5 976 0.499999L17 0.499957C7.88733 0.499957 0.5 7.88727 0.499999 17L0.499996 92C0.499996 101.113 7.88732 108.5 17 108.5L976 108.5C985.113 108.5 992.5 101.113 992.5 92L992.5 17Z" stroke="url(#paint2_radial_28_871)"/>
<path d="M992.5 17C992.5 7.8873 985.113 0.5 976 0.499999L17 0.499957C7.88733 0.499957 0.5 7.88727 0.499999 17L0.499996 92C0.499996 101.113 7.88732 108.5 17 108.5L976 108.5C985.113 108.5 992.5 101.113 992.5 92L992.5 17Z" stroke="url(#paint3_radial_28_871)"/>
</g>
<defs>
<filter id="filter0_b_28_871" x="-42" y="-42" width="1077" height="193" filterUnits="userSpaceOnUse" color-interpolation-filters="sRGB">
<feFlood flood-opacity="0" result="BackgroundImageFix"/>
<feGaussianBlur in="BackgroundImageFix" stdDeviation="21"/>
<feComposite in2="SourceAlpha" operator="in" result="effect1_backgroundBlur_28_871"/>
<feBlend mode="normal" in="SourceGraphic" in2="effect1_backgroundBlur_28_871" result="shape"/>
</filter>
<linearGradient id="paint0_linear_28_871" x1="992" y1="1" x2="927.847" y2="304.144" gradientUnits="userSpaceOnUse">
<stop stop-color="white" stop-opacity="0.4"/>
<stop offset="1" stop-color="white" stop-opacity="0"/>
</linearGradient>
<radialGradient id="paint1_radial_28_871" cx="0" cy="0" r="1" gradientUnits="userSpaceOnUse" gradientTransform="translate(496.5 54.5) rotate(-5.66625) scale(691.415 105.775)">
<stop stop-color="white"/>
<stop offset="1" stop-color="white" stop-opacity="0"/>
</radialGradient>
<radialGradient id="paint2_radial_28_871" cx="0" cy="0" r="1" gradientUnits="userSpaceOnUse" gradientTransform="translate(496.5 54.5) rotate(-6.07988) scale(505.123 90.7331)">
<stop stop-color="#CF146E"/>
<stop offset="1" stop-color="#CF146E" stop-opacity="0"/>
</radialGradient>
<radialGradient id="paint3_radial_28_871" cx="0" cy="0" r="1" gradientUnits="userSpaceOnUse" gradientTransform="translate(496.5 54.5) rotate(-173.63) scale(528.493 87.1013)">
<stop stop-color="#151515"/>
<stop offset="1" stop-color="#151515" stop-opacity="0"/>
</radialGradient>
</defs>
</svg>
