<svg width="46" height="47" viewBox="0 0 46 47" fill="none" xmlns="http://www.w3.org/2000/svg">
<path d="M13.3846 27.0558C15.1859 27.0558 16.6461 25.5882 16.6461 23.778C16.6461 21.9679 15.1859 20.5002 13.3846 20.5002C11.5833 20.5002 10.123 21.9679 10.123 23.778C10.123 25.5882 11.5833 27.0558 13.3846 27.0558Z" fill="white"/>
<path d="M23.1692 27.0558C24.9705 27.0558 26.4307 25.5882 26.4307 23.778C26.4307 21.9679 24.9705 20.5002 23.1692 20.5002C21.3679 20.5002 19.9077 21.9679 19.9077 23.778C19.9077 25.5882 21.3679 27.0558 23.1692 27.0558Z" fill="white"/>
<path d="M36.2154 23.778C36.2154 25.5882 34.7551 27.0558 32.9538 27.0558C31.1525 27.0558 29.6923 25.5882 29.6923 23.778C29.6923 21.9679 31.1525 20.5002 32.9538 20.5002C34.7551 20.5002 36.2154 21.9679 36.2154 23.778Z" fill="white"/>
</svg>
