<svg width="46" height="47" viewBox="0 0 46 47" fill="none" xmlns="http://www.w3.org/2000/svg">
<path d="M13.3847 27.0556C15.186 27.0556 16.6462 25.5879 16.6462 23.7778C16.6462 21.9676 15.186 20.5 13.3847 20.5C11.5834 20.5 10.1232 21.9676 10.1232 23.7778C10.1232 25.5879 11.5834 27.0556 13.3847 27.0556Z" fill="#ABA4A3"/>
<path d="M23.1693 27.0556C24.9706 27.0556 26.4309 25.5879 26.4309 23.7778C26.4309 21.9676 24.9706 20.5 23.1693 20.5C21.3681 20.5 19.9078 21.9676 19.9078 23.7778C19.9078 25.5879 21.3681 27.0556 23.1693 27.0556Z" fill="#ABA4A3"/>
<path d="M36.2155 23.7778C36.2155 25.5879 34.7552 27.0556 32.9539 27.0556C31.1527 27.0556 29.6924 25.5879 29.6924 23.7778C29.6924 21.9676 31.1527 20.5 32.9539 20.5C34.7552 20.5 36.2155 21.9676 36.2155 23.7778Z" fill="#ABA4A3"/>
</svg>
