<svg width="46" height="47" viewBox="0 0 46 47" fill="none" xmlns="http://www.w3.org/2000/svg">
<path d="M13.3846 27.0556C15.1859 27.0556 16.6461 25.5879 16.6461 23.7778C16.6461 21.9677 15.1859 20.5 13.3846 20.5C11.5833 20.5 10.123 21.9677 10.123 23.7778C10.123 25.5879 11.5833 27.0556 13.3846 27.0556Z" fill="white"/>
<path d="M23.1692 27.0556C24.9705 27.0556 26.4307 25.5879 26.4307 23.7778C26.4307 21.9677 24.9705 20.5 23.1692 20.5C21.3679 20.5 19.9077 21.9677 19.9077 23.7778C19.9077 25.5879 21.3679 27.0556 23.1692 27.0556Z" fill="white"/>
<path d="M36.2154 23.7778C36.2154 25.5879 34.7551 27.0556 32.9538 27.0556C31.1525 27.0556 29.6923 25.5879 29.6923 23.7778C29.6923 21.9677 31.1525 20.5 32.9538 20.5C34.7551 20.5 36.2154 21.9677 36.2154 23.7778Z" fill="white"/>
</svg>
