<svg width="31" height="31" viewBox="0 0 31 31" fill="none" xmlns="http://www.w3.org/2000/svg">
<path d="M8.85735 17.7143C10.0803 17.7143 11.0716 16.7228 11.0716 15.5C11.0716 14.2772 10.0803 13.2857 8.85735 13.2857C7.63445 13.2857 6.64307 14.2772 6.64307 15.5C6.64307 16.7228 7.63445 17.7143 8.85735 17.7143Z" fill="white"/>
<path d="M15.5002 17.7143C16.7231 17.7143 17.7145 16.7228 17.7145 15.5C17.7145 14.2772 16.7231 13.2857 15.5002 13.2857C14.2773 13.2857 13.2859 14.2772 13.2859 15.5C13.2859 16.7228 14.2773 17.7143 15.5002 17.7143Z" fill="white"/>
<path d="M24.3574 15.5C24.3574 16.7228 23.366 17.7143 22.1431 17.7143C20.9202 17.7143 19.9288 16.7228 19.9288 15.5C19.9288 14.2772 20.9202 13.2857 22.1431 13.2857C23.366 13.2857 24.3574 14.2772 24.3574 15.5Z" fill="white"/>
</svg>
