<svg width="31" height="31" viewBox="0 0 31 31" fill="none" xmlns="http://www.w3.org/2000/svg">
<path d="M8.85711 17.7143C10.08 17.7143 11.0714 16.7228 11.0714 15.5C11.0714 14.2772 10.08 13.2857 8.85711 13.2857C7.63421 13.2857 6.64282 14.2772 6.64282 15.5C6.64282 16.7228 7.63421 17.7143 8.85711 17.7143Z" fill="#898989"/>
<path d="M15.5 17.7143C16.7229 17.7143 17.7143 16.7228 17.7143 15.5C17.7143 14.2772 16.7229 13.2857 15.5 13.2857C14.2771 13.2857 13.2857 14.2772 13.2857 15.5C13.2857 16.7228 14.2771 17.7143 15.5 17.7143Z" fill="#898989"/>
<path d="M24.3571 15.5C24.3571 16.7228 23.3657 17.7143 22.1428 17.7143C20.9199 17.7143 19.9285 16.7228 19.9285 15.5C19.9285 14.2772 20.9199 13.2857 22.1428 13.2857C23.3657 13.2857 24.3571 14.2772 24.3571 15.5Z" fill="#898989"/>
</svg>
