<svg width="44" height="43" viewBox="0 0 44 43" fill="none" xmlns="http://www.w3.org/2000/svg">
<path fill-rule="evenodd" clip-rule="evenodd" d="M22 38.7334C31.4257 38.7334 39.0667 31.0924 39.0667 21.6668C39.0667 12.2411 31.4257 4.6001 22 4.6001C12.5744 4.6001 4.93335 12.2411 4.93335 21.6668C4.93335 31.0924 12.5744 38.7334 22 38.7334ZM21.05 15.6251C20.3954 15.1886 19.5537 15.148 18.8601 15.5192C18.1664 15.8904 17.7333 16.6133 17.7333 17.4001V25.9334C17.7333 26.7202 18.1664 27.4431 18.8601 27.8143C19.5537 28.1856 20.3954 28.1449 21.05 27.7085L27.45 23.4418C28.0435 23.0461 28.4 22.3801 28.4 21.6668C28.4 20.9535 28.0435 20.2874 27.45 19.8917L21.05 15.6251Z" fill="#8C8C8C"/>
</svg>
