<svg width="44" height="43" viewBox="0 0 44 43" fill="none" xmlns="http://www.w3.org/2000/svg">
<path fill-rule="evenodd" clip-rule="evenodd" d="M22 38.7336C31.4257 38.7336 39.0667 31.0925 39.0667 21.6669C39.0667 12.2412 31.4257 4.60022 22 4.60022C12.5744 4.60022 4.93335 12.2412 4.93335 21.6669C4.93335 31.0925 12.5744 38.7336 22 38.7336ZM21.05 15.6252C20.3954 15.1888 19.5537 15.1481 18.8601 15.5193C18.1664 15.8906 17.7333 16.6135 17.7333 17.4002V25.9336C17.7333 26.7203 18.1664 27.4432 18.8601 27.8145C19.5537 28.1857 20.3954 28.145 21.05 27.7086L27.45 23.4419C28.0435 23.0463 28.4 22.3802 28.4 21.6669C28.4 20.9536 28.0435 20.2875 27.45 19.8918L21.05 15.6252Z" fill="#8C8C8C"/>
</svg>
