<svg width="44" height="43" viewBox="0 0 44 43" fill="none" xmlns="http://www.w3.org/2000/svg">
<path fill-rule="evenodd" clip-rule="evenodd" d="M22 38.7335C31.4257 38.7335 39.0667 31.0925 39.0667 21.6668C39.0667 12.2412 31.4257 4.60016 22 4.60016C12.5744 4.60016 4.93335 12.2412 4.93335 21.6668C4.93335 31.0925 12.5744 38.7335 22 38.7335ZM21.05 15.6251C20.3954 15.1887 19.5537 15.148 18.8601 15.5193C18.1664 15.8905 17.7333 16.6134 17.7333 17.4002V25.9335C17.7333 26.7203 18.1664 27.4432 18.8601 27.8144C19.5537 28.1856 20.3954 28.145 21.05 27.7085L27.45 23.4419C28.0435 23.0462 28.4 22.3801 28.4 21.6668C28.4 20.9535 28.0435 20.2874 27.45 19.8918L21.05 15.6251Z" fill="#8C8C8C"/>
</svg>
