<svg width="44" height="43" viewBox="0 0 44 43" fill="none" xmlns="http://www.w3.org/2000/svg">
<path fill-rule="evenodd" clip-rule="evenodd" d="M22.0001 38.7335C31.4257 38.7335 39.0667 31.0925 39.0667 21.6668C39.0667 12.2412 31.4257 4.60016 22.0001 4.60016C12.5744 4.60016 4.93341 12.2412 4.93341 21.6668C4.93341 31.0925 12.5744 38.7335 22.0001 38.7335ZM21.0501 15.6251C20.3955 15.1887 19.5538 15.148 18.8601 15.5193C18.1664 15.8905 17.7334 16.6134 17.7334 17.4002V25.9335C17.7334 26.7203 18.1664 27.4432 18.8601 27.8144C19.5538 28.1856 20.3955 28.145 21.0501 27.7085L27.4501 23.4419C28.0436 23.0462 28.4001 22.3801 28.4001 21.6668C28.4001 20.9535 28.0436 20.2874 27.4501 19.8918L21.0501 15.6251Z" fill="#8C8C8C"/>
</svg>
