<svg width="44" height="43" viewBox="0 0 44 43" fill="none" xmlns="http://www.w3.org/2000/svg">
<path fill-rule="evenodd" clip-rule="evenodd" d="M22.0001 38.7334C31.4258 38.7334 39.0668 31.0924 39.0668 21.6668C39.0668 12.2411 31.4258 4.6001 22.0001 4.6001C12.5745 4.6001 4.93347 12.2411 4.93347 21.6668C4.93347 31.0924 12.5745 38.7334 22.0001 38.7334ZM21.0502 15.6251C20.3955 15.1886 19.5538 15.148 18.8602 15.5192C18.1665 15.8904 17.7335 16.6133 17.7335 17.4001V25.9334C17.7335 26.7202 18.1665 27.4431 18.8602 27.8143C19.5538 28.1856 20.3955 28.1449 21.0502 27.7085L27.4502 23.4418C28.0437 23.0461 28.4001 22.3801 28.4001 21.6668C28.4001 20.9535 28.0437 20.2874 27.4502 19.8917L21.0502 15.6251Z" fill="#8C8C8C"/>
</svg>
