<svg width="44" height="43" viewBox="0 0 44 43" fill="none" xmlns="http://www.w3.org/2000/svg">
<path fill-rule="evenodd" clip-rule="evenodd" d="M22.0003 38.7335C31.4259 38.7335 39.0669 31.0925 39.0669 21.6668C39.0669 12.2412 31.4259 4.60016 22.0003 4.60016C12.5746 4.60016 4.93359 12.2412 4.93359 21.6668C4.93359 31.0925 12.5746 38.7335 22.0003 38.7335ZM21.0503 15.6251C20.3957 15.1887 19.554 15.148 18.8603 15.5193C18.1666 15.8905 17.7336 16.6134 17.7336 17.4002V25.9335C17.7336 26.7203 18.1666 27.4432 18.8603 27.8144C19.554 28.1856 20.3957 28.145 21.0503 27.7085L27.4503 23.4419C28.0438 23.0462 28.4003 22.3801 28.4003 21.6668C28.4003 20.9535 28.0438 20.2874 27.4503 19.8918L21.0503 15.6251Z" fill="#8C8C8C"/>
</svg>
