<svg width="1030" height="383" viewBox="0 0 1030 383" fill="none" xmlns="http://www.w3.org/2000/svg">
<g filter="url(#filter0_b_19_1791)">
<path d="M1013 0.999999C1021.84 1 1029 8.16344 1029 17L1029 366C1029 374.837 1021.84 382 1013 382L17 382C8.16344 382 0.999984 374.837 0.999984 366L0.999999 17C1 8.1634 8.16345 0.999955 17 0.999956L1013 0.999999Z" fill="url(#paint0_linear_19_1791)" fill-opacity="0.5"/>
<path d="M1029.5 17C1029.5 7.8873 1022.11 0.5 1013 0.499999L17 0.499956C7.88733 0.499955 0.5 7.88726 0.499999 17L0.499984 366C0.499984 375.113 7.88731 382.5 17 382.5L1013 382.5C1022.11 382.5 1029.5 375.113 1029.5 366L1029.5 17Z" stroke="url(#paint1_radial_19_1791)"/>
<path d="M1029.5 17C1029.5 7.8873 1022.11 0.5 1013 0.499999L17 0.499956C7.88733 0.499955 0.5 7.88726 0.499999 17L0.499984 366C0.499984 375.113 7.88731 382.5 17 382.5L1013 382.5C1022.11 382.5 1029.5 375.113 1029.5 366L1029.5 17Z" stroke="url(#paint2_radial_19_1791)"/>
<path d="M1029.5 17C1029.5 7.8873 1022.11 0.5 1013 0.499999L17 0.499956C7.88733 0.499955 0.5 7.88726 0.499999 17L0.499984 366C0.499984 375.113 7.88731 382.5 17 382.5L1013 382.5C1022.11 382.5 1029.5 375.113 1029.5 366L1029.5 17Z" stroke="url(#paint3_radial_19_1791)"/>
</g>
<defs>
<filter id="filter0_b_19_1791" x="-42" y="-42" width="1114" height="467" filterUnits="userSpaceOnUse" color-interpolation-filters="sRGB">
<feFlood flood-opacity="0" result="BackgroundImageFix"/>
<feGaussianBlur in="BackgroundImageFix" stdDeviation="21"/>
<feComposite in2="SourceAlpha" operator="in" result="effect1_backgroundBlur_19_1791"/>
<feBlend mode="normal" in="SourceGraphic" in2="effect1_backgroundBlur_19_1791" result="shape"/>
</filter>
<linearGradient id="paint0_linear_19_1791" x1="1029" y1="1" x2="492.746" y2="739.214" gradientUnits="userSpaceOnUse">
<stop stop-color="white" stop-opacity="0.4"/>
<stop offset="1" stop-color="white" stop-opacity="0"/>
</linearGradient>
<radialGradient id="paint1_radial_19_1791" cx="0" cy="0" r="1" gradientUnits="userSpaceOnUse" gradientTransform="translate(515 191.5) rotate(-18.8076) scale(753.984 358.279)">
<stop stop-color="white"/>
<stop offset="1" stop-color="white" stop-opacity="0"/>
</radialGradient>
<radialGradient id="paint2_radial_19_1791" cx="0" cy="0" r="1" gradientUnits="userSpaceOnUse" gradientTransform="translate(515 191.5) rotate(-20.0834) scale(554.768 305.149)">
<stop stop-color="#CF146E"/>
<stop offset="1" stop-color="#CF146E" stop-opacity="0"/>
</radialGradient>
<radialGradient id="paint3_radial_19_1791" cx="0" cy="0" r="1" gradientUnits="userSpaceOnUse" gradientTransform="translate(515 191.5) rotate(-159.033) scale(583.475 291.408)">
<stop stop-color="#151515"/>
<stop offset="1" stop-color="#151515" stop-opacity="0"/>
</radialGradient>
</defs>
</svg>
