<svg width="1030" height="215" viewBox="0 0 1030 215" fill="none" xmlns="http://www.w3.org/2000/svg">
<g filter="url(#filter0_b_3_9)">
<path d="M1013 1.00003C1021.84 1.00003 1029 8.16348 1029 17L1029 198C1029 206.837 1021.84 214 1013 214L17 214C8.16344 214 0.999991 206.837 0.999991 198L0.999999 17C1 8.16343 8.16345 0.999986 17 0.999986L1013 1.00003Z" fill="url(#paint0_linear_3_9)" fill-opacity="0.5"/>
<path d="M1029.5 17C1029.5 7.88733 1022.11 0.50003 1013 0.50003L17 0.499986C7.88733 0.499986 0.5 7.88729 0.499999 17L0.499991 198C0.499991 207.113 7.88732 214.5 17 214.5L1013 214.5C1022.11 214.5 1029.5 207.113 1029.5 198L1029.5 17Z" stroke="url(#paint1_radial_3_9)"/>
<path d="M1029.5 17C1029.5 7.88733 1022.11 0.50003 1013 0.50003L17 0.499986C7.88733 0.499986 0.5 7.88729 0.499999 17L0.499991 198C0.499991 207.113 7.88732 214.5 17 214.5L1013 214.5C1022.11 214.5 1029.5 207.113 1029.5 198L1029.5 17Z" stroke="url(#paint2_radial_3_9)"/>
<path d="M1029.5 17C1029.5 7.88733 1022.11 0.50003 1013 0.50003L17 0.499986C7.88733 0.499986 0.5 7.88729 0.499999 17L0.499991 198C0.499991 207.113 7.88732 214.5 17 214.5L1013 214.5C1022.11 214.5 1029.5 207.113 1029.5 198L1029.5 17Z" stroke="url(#paint3_radial_3_9)"/>
</g>
<defs>
<filter id="filter0_b_3_9" x="-42" y="-42" width="1114" height="299" filterUnits="userSpaceOnUse" color-interpolation-filters="sRGB">
<feFlood flood-opacity="0" result="BackgroundImageFix"/>
<feGaussianBlur in="BackgroundImageFix" stdDeviation="21"/>
<feComposite in2="SourceAlpha" operator="in" result="effect1_backgroundBlur_3_9"/>
<feBlend mode="normal" in="SourceGraphic" in2="effect1_backgroundBlur_3_9" result="shape"/>
</filter>
<linearGradient id="paint0_linear_3_9" x1="1029" y1="1.00003" x2="809.206" y2="542.22" gradientUnits="userSpaceOnUse">
<stop stop-color="white" stop-opacity="0.4"/>
<stop offset="1" stop-color="white" stop-opacity="0"/>
</linearGradient>
<radialGradient id="paint1_radial_3_9" cx="0" cy="0" r="1" gradientUnits="userSpaceOnUse" gradientTransform="translate(515 107.5) rotate(-10.7801) scale(726.548 207.861)">
<stop stop-color="white"/>
<stop offset="1" stop-color="white" stop-opacity="0"/>
</radialGradient>
<radialGradient id="paint2_radial_3_9" cx="0" cy="0" r="1" gradientUnits="userSpaceOnUse" gradientTransform="translate(515 107.5) rotate(-11.5522) scale(531.808 177.96)">
<stop stop-color="#CF146E"/>
<stop offset="1" stop-color="#CF146E" stop-opacity="0"/>
</radialGradient>
<radialGradient id="paint3_radial_3_9" cx="0" cy="0" r="1" gradientUnits="userSpaceOnUse" gradientTransform="translate(515 107.5) rotate(-167.908) scale(557.203 170.595)">
<stop stop-color="#151515"/>
<stop offset="1" stop-color="#151515" stop-opacity="0"/>
</radialGradient>
</defs>
</svg>
