<svg width="1030" height="383" viewBox="0 0 1030 383" fill="none" xmlns="http://www.w3.org/2000/svg">
<g filter="url(#filter0_b_26_371)">
<path d="M1013 1.00006C1021.84 1.00006 1029 8.16351 1029 17.0001L1029 366C1029 374.837 1021.84 382 1013 382L17 382C8.16344 382 0.999984 374.837 0.999984 366L0.999999 17C1 8.16346 8.16345 1.00002 17 1.00002L1013 1.00006Z" fill="url(#paint0_linear_26_371)" fill-opacity="0.5"/>
<path d="M1029.5 17.0001C1029.5 7.88736 1022.11 0.500061 1013 0.50006L17 0.500017C7.88733 0.500016 0.5 7.88732 0.499999 17L0.499984 366C0.499984 375.113 7.88731 382.5 17 382.5L1013 382.5C1022.11 382.5 1029.5 375.113 1029.5 366L1029.5 17.0001Z" stroke="url(#paint1_radial_26_371)"/>
<path d="M1029.5 17.0001C1029.5 7.88736 1022.11 0.500061 1013 0.50006L17 0.500017C7.88733 0.500016 0.5 7.88732 0.499999 17L0.499984 366C0.499984 375.113 7.88731 382.5 17 382.5L1013 382.5C1022.11 382.5 1029.5 375.113 1029.5 366L1029.5 17.0001Z" stroke="url(#paint2_radial_26_371)"/>
<path d="M1029.5 17.0001C1029.5 7.88736 1022.11 0.500061 1013 0.50006L17 0.500017C7.88733 0.500016 0.5 7.88732 0.499999 17L0.499984 366C0.499984 375.113 7.88731 382.5 17 382.5L1013 382.5C1022.11 382.5 1029.5 375.113 1029.5 366L1029.5 17.0001Z" stroke="url(#paint3_radial_26_371)"/>
</g>
<defs>
<filter id="filter0_b_26_371" x="-42" y="-42" width="1114" height="467" filterUnits="userSpaceOnUse" color-interpolation-filters="sRGB">
<feFlood flood-opacity="0" result="BackgroundImageFix"/>
<feGaussianBlur in="BackgroundImageFix" stdDeviation="21"/>
<feComposite in2="SourceAlpha" operator="in" result="effect1_backgroundBlur_26_371"/>
<feBlend mode="normal" in="SourceGraphic" in2="effect1_backgroundBlur_26_371" result="shape"/>
</filter>
<linearGradient id="paint0_linear_26_371" x1="1029" y1="1.00006" x2="492.746" y2="739.214" gradientUnits="userSpaceOnUse">
<stop stop-color="white" stop-opacity="0.4"/>
<stop offset="1" stop-color="white" stop-opacity="0"/>
</linearGradient>
<radialGradient id="paint1_radial_26_371" cx="0" cy="0" r="1" gradientUnits="userSpaceOnUse" gradientTransform="translate(515 191.5) rotate(-18.8076) scale(753.984 358.279)">
<stop stop-color="white"/>
<stop offset="1" stop-color="white" stop-opacity="0"/>
</radialGradient>
<radialGradient id="paint2_radial_26_371" cx="0" cy="0" r="1" gradientUnits="userSpaceOnUse" gradientTransform="translate(515 191.5) rotate(-20.0834) scale(554.768 305.149)">
<stop stop-color="#CF146E"/>
<stop offset="1" stop-color="#CF146E" stop-opacity="0"/>
</radialGradient>
<radialGradient id="paint3_radial_26_371" cx="0" cy="0" r="1" gradientUnits="userSpaceOnUse" gradientTransform="translate(515 191.5) rotate(-159.033) scale(583.475 291.408)">
<stop stop-color="#151515"/>
<stop offset="1" stop-color="#151515" stop-opacity="0"/>
</radialGradient>
</defs>
</svg>
