<svg width="33" height="32" viewBox="0 0 33 32" fill="none" xmlns="http://www.w3.org/2000/svg">
<path d="M29.8724 3.31419C28.2019 1.55481 25.959 0.514975 23.5885 0.400899C21.218 0.286823 18.8929 1.10683 17.0744 2.69832C16.8653 2.86311 16.6133 2.95814 16.3515 2.97096C16.0881 2.96294 15.8341 2.86743 15.6263 2.69832C13.8086 1.10593 11.4837 0.285305 9.11327 0.399398C6.74282 0.513491 4.50015 1.55395 2.83059 3.31419C1.94494 4.23366 1.24283 5.32738 0.764879 6.53203C0.286932 7.73669 0.0426519 9.02834 0.0461803 10.3322C0.0461803 12.9831 1.03495 15.4758 2.76995 17.2821L13.1753 29.9963C13.5674 30.4764 14.0547 30.862 14.6034 31.1265C15.1522 31.3909 15.7494 31.5278 16.3538 31.5278C16.9583 31.5278 17.5555 31.3909 18.1042 31.1265C18.653 30.862 19.1403 30.4764 19.5324 29.9963L29.8748 17.3502C30.7606 16.4308 31.463 15.3371 31.9414 14.1325C32.4197 12.9279 32.6645 11.6362 32.6615 10.3322C32.6635 9.02814 32.4181 7.73656 31.9394 6.53201C31.4607 5.32747 30.7582 4.23383 29.8724 3.31419ZM28.1887 15.7241L17.7834 28.4384C17.0674 29.3147 15.6356 29.3147 14.9197 28.4384L4.45366 15.656C3.78211 14.9584 3.2498 14.1286 2.88754 13.2148C2.52527 12.3009 2.34026 11.3212 2.3432 10.3322C2.3432 8.3215 3.09177 6.43007 4.45366 5.00845C5.12301 4.30483 5.91899 3.74626 6.79584 3.36484C7.6727 2.98343 8.61312 2.78669 9.56306 2.78595C11.2311 2.78484 12.8465 3.39574 14.1268 4.51186C14.2224 4.59949 15.0782 5.36629 16.3515 5.36629C17.5898 5.36629 18.4643 4.61166 18.5436 4.53863C19.9222 3.33148 21.6852 2.70947 23.4827 2.79605C25.2802 2.88263 26.9808 3.67147 28.247 5.00601C28.9212 5.71159 29.4547 6.54955 29.817 7.47154C30.1792 8.39352 30.3629 9.38126 30.3575 10.3778C30.3521 11.3742 30.1576 12.3598 29.7854 13.2774C29.4132 14.195 28.8705 15.0266 28.1887 15.7241Z" fill="#AAAAAA"/>
</svg>
