<svg width="28" height="26" viewBox="0 0 28 26" fill="none" xmlns="http://www.w3.org/2000/svg">
<path fill-rule="evenodd" clip-rule="evenodd" d="M14.9333 16.7388V6.93333H13.0667V16.7267L9.4752 12.8509L8.06027 13.9776L14.0019 20.3944L19.9659 13.9811L18.5509 12.8492L14.9333 16.7388ZM14 0C6.26827 0 0 5.82053 0 13C0 20.1795 6.26827 26 14 26C21.7317 26 28 20.1795 28 13C28 5.82053 21.7317 0 14 0ZM14 24.2667C7.30987 24.2667 1.86667 19.2123 1.86667 13C1.86667 6.78773 7.30987 1.73333 14 1.73333C20.6901 1.73333 26.1333 6.78773 26.1333 13C26.1333 19.2123 20.6901 24.2667 14 24.2667Z" fill="#B3B3B3"/>
</svg>
