<svg width="33" height="32" viewBox="0 0 33 32" fill="none" xmlns="http://www.w3.org/2000/svg">
<path d="M29.8727 3.31416C28.2022 1.55477 25.9593 0.514945 23.5887 0.400869C21.2182 0.286793 18.8932 1.1068 17.0747 2.69829C16.8655 2.86308 16.6135 2.95811 16.3518 2.97093C16.0884 2.96291 15.8343 2.8674 15.6265 2.69829C13.8088 1.1059 11.484 0.285275 9.11352 0.399368C6.74306 0.513461 4.5004 1.55392 2.83083 3.31416C1.94519 4.23363 1.24307 5.32735 0.765123 6.532C0.287177 7.73666 0.0428961 9.02831 0.0464244 10.3322C0.0464244 12.9831 1.03519 15.4758 2.7702 17.282L13.1756 29.9963C13.5677 30.4764 14.0549 30.862 14.6037 31.1264C15.1525 31.3908 15.7497 31.5278 16.3541 31.5278C16.9585 31.5278 17.5557 31.3908 18.1045 31.1264C18.6532 30.862 19.1405 30.4764 19.5326 29.9963L29.875 17.3502C30.7609 16.4308 31.4633 15.3371 31.9416 14.1325C32.4199 12.9279 32.6647 11.6362 32.6617 10.3322C32.6638 9.02811 32.4183 7.73653 31.9396 6.53198C31.4609 5.32744 30.7584 4.2338 29.8727 3.31416ZM28.189 15.7241L17.7836 28.4383C17.0677 29.3147 15.6358 29.3147 14.9199 28.4383L4.4539 15.6559C3.78235 14.9583 3.25004 14.1286 2.88778 13.2147C2.52552 12.3009 2.3405 11.3212 2.34344 10.3322C2.34344 8.32147 3.09201 6.43004 4.4539 5.00842C5.12325 4.3048 5.91923 3.74623 6.79609 3.36481C7.67294 2.9834 8.61337 2.78666 9.56331 2.78592C11.2314 2.78481 12.8467 3.39571 14.127 4.51183C14.2226 4.59946 15.0785 5.36626 16.3518 5.36626C17.59 5.36626 18.4645 4.61163 18.5438 4.5386C19.9224 3.33145 21.6854 2.70944 23.4829 2.79602C25.2804 2.8826 26.981 3.67144 28.2473 5.00598C28.9214 5.71156 29.455 6.54952 29.8172 7.47151C30.1794 8.39349 30.3631 9.38123 30.3577 10.3777C30.3523 11.3742 30.1579 12.3597 29.7856 13.2774C29.4134 14.195 28.8707 15.0266 28.189 15.7241Z" fill="#B3B3B3"/>
</svg>
