<svg width="33" height="32" viewBox="0 0 33 32" fill="none" xmlns="http://www.w3.org/2000/svg">
<path d="M29.8722 3.31419C28.2017 1.55481 25.9588 0.514975 23.5882 0.400899C21.2177 0.286823 18.8927 1.10683 17.0742 2.69832C16.865 2.86311 16.613 2.95814 16.3513 2.97096C16.0879 2.96294 15.8338 2.86743 15.626 2.69832C13.8084 1.10593 11.4835 0.285305 9.11303 0.399398C6.74257 0.513491 4.49991 1.55395 2.83034 3.31419C1.9447 4.23366 1.24258 5.32738 0.764635 6.53203C0.286688 7.73669 0.0424078 9.02834 0.0459361 10.3322C0.0459361 12.9831 1.0347 15.4758 2.76971 17.2821L13.1751 29.9963C13.5672 30.4764 14.0544 30.862 14.6032 31.1265C15.152 31.3909 15.7492 31.5278 16.3536 31.5278C16.958 31.5278 17.5552 31.3909 18.104 31.1265C18.6528 30.862 19.14 30.4764 19.5321 29.9963L29.8745 17.3502C30.7604 16.4308 31.4628 15.3371 31.9411 14.1325C32.4195 12.9279 32.6642 11.6362 32.6613 10.3322C32.6633 9.02814 32.4178 7.73656 31.9391 6.53201C31.4604 5.32747 30.7579 4.23383 29.8722 3.31419ZM28.1885 15.7241L17.7831 28.4384C17.0672 29.3147 15.6353 29.3147 14.9194 28.4384L4.45341 15.656C3.78187 14.9584 3.24955 14.1286 2.88729 13.2148C2.52503 12.3009 2.34001 11.3212 2.34295 10.3322C2.34295 8.3215 3.09153 6.43007 4.45341 5.00845C5.12276 4.30483 5.91875 3.74626 6.7956 3.36484C7.67245 2.98343 8.61288 2.78669 9.56282 2.78595C11.2309 2.78484 12.8462 3.39574 14.1265 4.51186C14.2221 4.59949 15.078 5.36629 16.3513 5.36629C17.5896 5.36629 18.4641 4.61166 18.5433 4.53863C19.9219 3.33148 21.6849 2.70947 23.4824 2.79605C25.2799 2.88263 26.9805 3.67147 28.2468 5.00601C28.9209 5.71159 29.4545 6.54955 29.8167 7.47154C30.179 8.39352 30.3627 9.38126 30.3572 10.3778C30.3518 11.3742 30.1574 12.3598 29.7851 13.2774C29.4129 14.195 28.8702 15.0266 28.1885 15.7241Z" fill="#B3B3B3"/>
</svg>
