<svg width="37" height="37" viewBox="0 0 37 37" fill="none" xmlns="http://www.w3.org/2000/svg">
<path fill-rule="evenodd" clip-rule="evenodd" d="M19.3497 23.3237V9.72593H16.9579V23.3069L12.3561 17.9322L10.5431 19.4946L18.1562 28.3931L25.798 19.4994L23.985 17.9298L19.3497 23.3237ZM18.1538 0.111115C8.24698 0.111115 0.215332 8.18275 0.215332 18.1389C0.215332 28.095 8.24698 36.1667 18.1538 36.1667C28.0606 36.1667 36.0923 28.095 36.0923 18.1389C36.0923 8.18275 28.0606 0.111115 18.1538 0.111115ZM18.1538 33.763C9.5816 33.763 2.60713 26.7538 2.60713 18.1389C2.60713 9.52402 9.5816 2.51482 18.1538 2.51482C26.726 2.51482 33.7005 9.52402 33.7005 18.1389C33.7005 26.7538 26.726 33.763 18.1538 33.763Z" fill="#B3B3B3"/>
</svg>
