<svg width="86" height="45" viewBox="0 0 86 45" fill="none" xmlns="http://www.w3.org/2000/svg">
<path d="M15.0864 28.1797L17.1167 32.106L19.1523 28.1797H20.3286L17.6323 33.0781V36H16.5957V33.0781L13.8994 28.1797H15.0864ZM20.5649 33.1587V33.0352C20.5649 32.6162 20.6258 32.2277 20.7476 31.8696C20.8693 31.508 21.0448 31.1947 21.2739 30.9297C21.5031 30.6611 21.7806 30.4535 22.1064 30.3066C22.4323 30.1562 22.7975 30.0811 23.2021 30.0811C23.6104 30.0811 23.9774 30.1562 24.3032 30.3066C24.6326 30.4535 24.9119 30.6611 25.1411 30.9297C25.3739 31.1947 25.5511 31.508 25.6729 31.8696C25.7946 32.2277 25.8555 32.6162 25.8555 33.0352V33.1587C25.8555 33.5776 25.7946 33.9661 25.6729 34.3242C25.5511 34.6823 25.3739 34.9956 25.1411 35.2642C24.9119 35.5291 24.6344 35.7368 24.3086 35.8872C23.9863 36.034 23.6211 36.1074 23.2129 36.1074C22.8047 36.1074 22.4377 36.034 22.1118 35.8872C21.786 35.7368 21.5067 35.5291 21.2739 35.2642C21.0448 34.9956 20.8693 34.6823 20.7476 34.3242C20.6258 33.9661 20.5649 33.5776 20.5649 33.1587ZM21.5586 33.0352V33.1587C21.5586 33.4487 21.5926 33.7227 21.6606 33.9805C21.7287 34.2347 21.8307 34.4603 21.9668 34.6572C22.1064 34.8542 22.2801 35.0099 22.4878 35.1245C22.6955 35.2355 22.9372 35.291 23.2129 35.291C23.485 35.291 23.7231 35.2355 23.9272 35.1245C24.1349 35.0099 24.3068 34.8542 24.4429 34.6572C24.5789 34.4603 24.681 34.2347 24.749 33.9805C24.8206 33.7227 24.8564 33.4487 24.8564 33.1587V33.0352C24.8564 32.7487 24.8206 32.4784 24.749 32.2241C24.681 31.9663 24.5771 31.7389 24.4375 31.542C24.3014 31.3415 24.1296 31.1839 23.9219 31.0693C23.7178 30.9548 23.4779 30.8975 23.2021 30.8975C22.93 30.8975 22.6901 30.9548 22.4824 31.0693C22.2783 31.1839 22.1064 31.3415 21.9668 31.542C21.8307 31.7389 21.7287 31.9663 21.6606 32.2241C21.5926 32.4784 21.5586 32.7487 21.5586 33.0352ZM30.6572 34.6572V30.1885H31.6562V36H30.7056L30.6572 34.6572ZM30.8452 33.4326L31.2588 33.4219C31.2588 33.8086 31.2176 34.1667 31.1353 34.4961C31.0565 34.8219 30.9276 35.1048 30.7485 35.3447C30.5695 35.5846 30.335 35.7726 30.0449 35.9087C29.7549 36.0412 29.4022 36.1074 28.9868 36.1074C28.7039 36.1074 28.4443 36.0662 28.208 35.9839C27.9753 35.9015 27.7747 35.7744 27.6064 35.6025C27.4382 35.4307 27.3075 35.2069 27.2144 34.9312C27.1248 34.6554 27.0801 34.3242 27.0801 33.9375V30.1885H28.0737V33.9482C28.0737 34.2096 28.1024 34.4263 28.1597 34.5981C28.2205 34.7664 28.3011 34.9007 28.4014 35.001C28.5052 35.0977 28.6198 35.1657 28.7451 35.2051C28.874 35.2445 29.0065 35.2642 29.1426 35.2642C29.5651 35.2642 29.8999 35.1836 30.147 35.0225C30.394 34.8577 30.5713 34.6375 30.6787 34.3618C30.7897 34.0825 30.8452 33.7728 30.8452 33.4326ZM34.1646 31.1016V36H33.1709V30.1885H34.1377L34.1646 31.1016ZM35.98 30.1562L35.9746 31.0801C35.8923 31.0622 35.8135 31.0514 35.7383 31.0479C35.6667 31.0407 35.5843 31.0371 35.4912 31.0371C35.262 31.0371 35.0597 31.0729 34.8843 31.1445C34.7088 31.2161 34.5602 31.3164 34.4385 31.4453C34.3167 31.5742 34.2201 31.7282 34.1484 31.9072C34.0804 32.0827 34.0356 32.276 34.0142 32.4873L33.7349 32.6484C33.7349 32.2975 33.7689 31.9681 33.8369 31.6602C33.9085 31.3522 34.0177 31.0801 34.1646 30.8438C34.3114 30.6038 34.4976 30.4176 34.7231 30.2852C34.9523 30.1491 35.2244 30.0811 35.5396 30.0811C35.6112 30.0811 35.6935 30.09 35.7866 30.1079C35.8797 30.1222 35.9442 30.1383 35.98 30.1562ZM44.52 35.1567V36H40.6099V35.1567H44.52ZM40.814 28.1797V36H39.7773V28.1797H40.814ZM46.6362 30.1885V36H45.6372V30.1885H46.6362ZM45.562 28.647C45.562 28.4858 45.6104 28.3498 45.707 28.2388C45.8073 28.1278 45.9541 28.0723 46.1475 28.0723C46.3372 28.0723 46.4823 28.1278 46.5825 28.2388C46.6864 28.3498 46.7383 28.4858 46.7383 28.647C46.7383 28.8009 46.6864 28.9334 46.5825 29.0444C46.4823 29.1519 46.3372 29.2056 46.1475 29.2056C45.9541 29.2056 45.8073 29.1519 45.707 29.0444C45.6104 28.9334 45.562 28.8009 45.562 28.647ZM48.2261 27.75H49.2251V34.8721L49.1392 36H48.2261V27.75ZM53.1514 33.0459V33.1587C53.1514 33.5812 53.1012 33.9733 53.001 34.335C52.9007 34.693 52.7539 35.0046 52.5605 35.2695C52.3672 35.5345 52.1309 35.7404 51.8516 35.8872C51.5723 36.034 51.2518 36.1074 50.8901 36.1074C50.5213 36.1074 50.1973 36.0448 49.918 35.9194C49.6423 35.7905 49.4095 35.6061 49.2197 35.3662C49.0299 35.1263 48.8778 34.8363 48.7632 34.4961C48.6522 34.1559 48.5752 33.7728 48.5322 33.3467V32.8525C48.5752 32.4229 48.6522 32.0379 48.7632 31.6978C48.8778 31.3576 49.0299 31.0675 49.2197 30.8276C49.4095 30.5841 49.6423 30.3997 49.918 30.2744C50.1937 30.1455 50.5142 30.0811 50.8794 30.0811C51.2446 30.0811 51.5687 30.1527 51.8516 30.2959C52.1344 30.4355 52.3708 30.6361 52.5605 30.8975C52.7539 31.1589 52.9007 31.4722 53.001 31.8374C53.1012 32.1991 53.1514 32.6019 53.1514 33.0459ZM52.1523 33.1587V33.0459C52.1523 32.7559 52.1255 32.4837 52.0718 32.2295C52.0181 31.9717 51.9321 31.7461 51.814 31.5527C51.6958 31.3558 51.54 31.2018 51.3467 31.0908C51.1533 30.9762 50.9152 30.9189 50.6323 30.9189C50.3817 30.9189 50.1632 30.9619 49.9771 31.0479C49.7944 31.1338 49.6387 31.2502 49.5098 31.397C49.3809 31.5402 49.2752 31.7049 49.1929 31.8911C49.1141 32.0737 49.055 32.2635 49.0156 32.4604V33.7549C49.0729 34.0055 49.166 34.2472 49.2949 34.48C49.4274 34.7091 49.6029 34.8971 49.8213 35.0439C50.0433 35.1908 50.3172 35.2642 50.6431 35.2642C50.9116 35.2642 51.1408 35.2104 51.3306 35.103C51.5239 34.992 51.6797 34.8398 51.7979 34.6465C51.9196 34.4531 52.0091 34.2293 52.0664 33.9751C52.1237 33.7209 52.1523 33.4487 52.1523 33.1587ZM55.4019 31.1016V36H54.4082V30.1885H55.375L55.4019 31.1016ZM57.2173 30.1562L57.2119 31.0801C57.1296 31.0622 57.0508 31.0514 56.9756 31.0479C56.904 31.0407 56.8216 31.0371 56.7285 31.0371C56.4993 31.0371 56.297 31.0729 56.1216 31.1445C55.9461 31.2161 55.7975 31.3164 55.6758 31.4453C55.554 31.5742 55.4574 31.7282 55.3857 31.9072C55.3177 32.0827 55.2729 32.276 55.2515 32.4873L54.9722 32.6484C54.9722 32.2975 55.0062 31.9681 55.0742 31.6602C55.1458 31.3522 55.255 31.0801 55.4019 30.8438C55.5487 30.6038 55.7349 30.4176 55.9604 30.2852C56.1896 30.1491 56.4618 30.0811 56.7769 30.0811C56.8485 30.0811 56.9308 30.09 57.0239 30.1079C57.117 30.1222 57.1815 30.1383 57.2173 30.1562ZM61.3477 35.0063V32.0146C61.3477 31.7855 61.3011 31.5868 61.208 31.4185C61.1185 31.2466 60.9824 31.1141 60.7998 31.021C60.6172 30.9279 60.3916 30.8813 60.123 30.8813C59.8724 30.8813 59.6522 30.9243 59.4624 31.0103C59.2762 31.0962 59.1294 31.209 59.022 31.3486C58.9181 31.4883 58.8662 31.6387 58.8662 31.7998H57.8726C57.8726 31.5921 57.9263 31.3862 58.0337 31.1821C58.1411 30.978 58.2951 30.7936 58.4956 30.6289C58.6997 30.4606 58.9432 30.3281 59.2261 30.2314C59.5125 30.1312 59.8312 30.0811 60.1821 30.0811C60.6047 30.0811 60.9771 30.1527 61.2993 30.2959C61.6252 30.4391 61.8794 30.6558 62.062 30.9458C62.2482 31.2323 62.3413 31.5921 62.3413 32.0254V34.7324C62.3413 34.9258 62.3574 35.1317 62.3896 35.3501C62.4255 35.5685 62.4774 35.7565 62.5454 35.9141V36H61.5088C61.4587 35.8854 61.4193 35.7332 61.3906 35.5435C61.362 35.3501 61.3477 35.1711 61.3477 35.0063ZM61.5195 32.4766L61.5303 33.1748H60.5259C60.243 33.1748 59.9906 33.1981 59.7686 33.2446C59.5465 33.2876 59.3604 33.3538 59.21 33.4434C59.0596 33.5329 58.945 33.6457 58.8662 33.7817C58.7874 33.9142 58.748 34.07 58.748 34.249C58.748 34.4316 58.7892 34.5981 58.8716 34.7485C58.9539 34.8989 59.0775 35.0189 59.2422 35.1084C59.4105 35.1943 59.6164 35.2373 59.8599 35.2373C60.1642 35.2373 60.4328 35.1729 60.6655 35.0439C60.8983 34.915 61.0827 34.7575 61.2188 34.5713C61.3584 34.3851 61.4336 34.2043 61.4443 34.0288L61.8687 34.5068C61.8436 34.6572 61.7756 34.8237 61.6646 35.0063C61.5535 35.189 61.4049 35.3644 61.2188 35.5327C61.0361 35.6974 60.8177 35.8353 60.5635 35.9463C60.3128 36.0537 60.0299 36.1074 59.7148 36.1074C59.321 36.1074 58.9754 36.0304 58.6782 35.8765C58.3846 35.7225 58.1554 35.5166 57.9907 35.2588C57.8296 34.9974 57.749 34.7056 57.749 34.3833C57.749 34.0718 57.8099 33.7979 57.9316 33.5615C58.0534 33.3216 58.2288 33.1229 58.458 32.9653C58.6872 32.8042 58.9629 32.6825 59.2852 32.6001C59.6074 32.5177 59.9673 32.4766 60.3647 32.4766H61.5195ZM64.8979 31.1016V36H63.9043V30.1885H64.8711L64.8979 31.1016ZM66.7134 30.1562L66.708 31.0801C66.6257 31.0622 66.5469 31.0514 66.4717 31.0479C66.4001 31.0407 66.3177 31.0371 66.2246 31.0371C65.9954 31.0371 65.7931 31.0729 65.6177 31.1445C65.4422 31.2161 65.2936 31.3164 65.1719 31.4453C65.0501 31.5742 64.9535 31.7282 64.8818 31.9072C64.8138 32.0827 64.769 32.276 64.7476 32.4873L64.4683 32.6484C64.4683 32.2975 64.5023 31.9681 64.5703 31.6602C64.6419 31.3522 64.7511 31.0801 64.8979 30.8438C65.0448 30.6038 65.231 30.4176 65.4565 30.2852C65.6857 30.1491 65.9578 30.0811 66.2729 30.0811C66.3446 30.0811 66.4269 30.09 66.52 30.1079C66.6131 30.1222 66.6776 30.1383 66.7134 30.1562ZM69.3613 35.3984L70.978 30.1885H72.0415L69.7104 36.897C69.6567 37.0402 69.5851 37.1942 69.4956 37.3589C69.4097 37.5272 69.2987 37.6865 69.1626 37.8369C69.0265 37.9873 68.8618 38.109 68.6685 38.2021C68.4787 38.2988 68.2513 38.3472 67.9863 38.3472C67.9076 38.3472 67.8073 38.3364 67.6855 38.3149C67.5638 38.2935 67.4779 38.2756 67.4277 38.2612L67.4224 37.4556C67.451 37.4591 67.4958 37.4627 67.5566 37.4663C67.6211 37.4735 67.6659 37.4771 67.6909 37.4771C67.9165 37.4771 68.1081 37.4466 68.2656 37.3857C68.4232 37.3285 68.5557 37.23 68.6631 37.0903C68.7741 36.9543 68.869 36.7663 68.9478 36.5264L69.3613 35.3984ZM68.1743 30.1885L69.6836 34.7002L69.9414 35.7476L69.2271 36.1128L67.0894 30.1885H68.1743Z" fill="white"/>
<path d="M44.5665 0L53 19.1163L51.0172 20L42.5837 0.883699L44.5665 0ZM32 19.7661V0.116974H34.1631V19.7661H32ZM37.4077 19.7661V0.116974H39.5709V19.7661H37.4078H37.4077Z" fill="white"/>
</svg>
